<mxfile host="Electron" modified="2024-01-31T17:15:25.185Z" agent="Mozilla/5.0 (Windows NT 10.0; Win64; x64) AppleWebKit/537.36 (KHTML, like Gecko) draw.io/23.0.2 Chrome/120.0.6099.109 Electron/28.1.0 Safari/537.36" etag="WHzFklM78AHFkp5y_K8z" version="23.0.2" type="device">
  <diagram name="PÃ¡gina-1" id="bCZSLoV3D-o7rCIGkuOt">
    <mxGraphModel dx="2731" dy="2845" grid="1" gridSize="10" guides="1" tooltips="1" connect="1" arrows="1" fold="1" page="1" pageScale="1" pageWidth="1169" pageHeight="1654" math="0" shadow="0">
      <root>
        <mxCell id="0" />
        <mxCell id="1" parent="0" />
        <mxCell id="2Cc2kU4OW--1ssd0tUTJ-1" value="Author" style="shape=table;startSize=30;container=1;collapsible=1;childLayout=tableLayout;fixedRows=1;rowLines=0;fontStyle=1;align=center;resizeLast=1;html=1;" parent="1" vertex="1">
          <mxGeometry x="520" y="480" width="210" height="120" as="geometry" />
        </mxCell>
        <mxCell id="2Cc2kU4OW--1ssd0tUTJ-2" value="" style="shape=tableRow;horizontal=0;startSize=0;swimlaneHead=0;swimlaneBody=0;fillColor=none;collapsible=0;dropTarget=0;points=[[0,0.5],[1,0.5]];portConstraint=eastwest;top=0;left=0;right=0;bottom=1;" parent="2Cc2kU4OW--1ssd0tUTJ-1" vertex="1">
          <mxGeometry y="30" width="210" height="30" as="geometry" />
        </mxCell>
        <mxCell id="2Cc2kU4OW--1ssd0tUTJ-3" value="PK" style="shape=partialRectangle;connectable=0;fillColor=none;top=0;left=0;bottom=0;right=0;fontStyle=1;overflow=hidden;whiteSpace=wrap;html=1;" parent="2Cc2kU4OW--1ssd0tUTJ-2" vertex="1">
          <mxGeometry width="30" height="30" as="geometry">
            <mxRectangle width="30" height="30" as="alternateBounds" />
          </mxGeometry>
        </mxCell>
        <mxCell id="2Cc2kU4OW--1ssd0tUTJ-4" value="ID_author" style="shape=partialRectangle;connectable=0;fillColor=none;top=0;left=0;bottom=0;right=0;align=left;spacingLeft=6;fontStyle=5;overflow=hidden;whiteSpace=wrap;html=1;" parent="2Cc2kU4OW--1ssd0tUTJ-2" vertex="1">
          <mxGeometry x="30" width="180" height="30" as="geometry">
            <mxRectangle width="180" height="30" as="alternateBounds" />
          </mxGeometry>
        </mxCell>
        <mxCell id="2Cc2kU4OW--1ssd0tUTJ-14" style="shape=tableRow;horizontal=0;startSize=0;swimlaneHead=0;swimlaneBody=0;fillColor=none;collapsible=0;dropTarget=0;points=[[0,0.5],[1,0.5]];portConstraint=eastwest;top=0;left=0;right=0;bottom=0;" parent="2Cc2kU4OW--1ssd0tUTJ-1" vertex="1">
          <mxGeometry y="60" width="210" height="30" as="geometry" />
        </mxCell>
        <mxCell id="2Cc2kU4OW--1ssd0tUTJ-15" style="shape=partialRectangle;connectable=0;fillColor=none;top=0;left=0;bottom=0;right=0;editable=1;overflow=hidden;whiteSpace=wrap;html=1;" parent="2Cc2kU4OW--1ssd0tUTJ-14" vertex="1">
          <mxGeometry width="30" height="30" as="geometry">
            <mxRectangle width="30" height="30" as="alternateBounds" />
          </mxGeometry>
        </mxCell>
        <mxCell id="2Cc2kU4OW--1ssd0tUTJ-16" value="Name" style="shape=partialRectangle;connectable=0;fillColor=none;top=0;left=0;bottom=0;right=0;align=left;spacingLeft=6;overflow=hidden;whiteSpace=wrap;html=1;" parent="2Cc2kU4OW--1ssd0tUTJ-14" vertex="1">
          <mxGeometry x="30" width="180" height="30" as="geometry">
            <mxRectangle width="180" height="30" as="alternateBounds" />
          </mxGeometry>
        </mxCell>
        <mxCell id="2Cc2kU4OW--1ssd0tUTJ-260" style="shape=tableRow;horizontal=0;startSize=0;swimlaneHead=0;swimlaneBody=0;fillColor=none;collapsible=0;dropTarget=0;points=[[0,0.5],[1,0.5]];portConstraint=eastwest;top=0;left=0;right=0;bottom=0;" parent="2Cc2kU4OW--1ssd0tUTJ-1" vertex="1">
          <mxGeometry y="90" width="210" height="30" as="geometry" />
        </mxCell>
        <mxCell id="2Cc2kU4OW--1ssd0tUTJ-261" style="shape=partialRectangle;connectable=0;fillColor=none;top=0;left=0;bottom=0;right=0;editable=1;overflow=hidden;whiteSpace=wrap;html=1;" parent="2Cc2kU4OW--1ssd0tUTJ-260" vertex="1">
          <mxGeometry width="30" height="30" as="geometry">
            <mxRectangle width="30" height="30" as="alternateBounds" />
          </mxGeometry>
        </mxCell>
        <mxCell id="2Cc2kU4OW--1ssd0tUTJ-262" value="Surname" style="shape=partialRectangle;connectable=0;fillColor=none;top=0;left=0;bottom=0;right=0;align=left;spacingLeft=6;overflow=hidden;whiteSpace=wrap;html=1;" parent="2Cc2kU4OW--1ssd0tUTJ-260" vertex="1">
          <mxGeometry x="30" width="180" height="30" as="geometry">
            <mxRectangle width="180" height="30" as="alternateBounds" />
          </mxGeometry>
        </mxCell>
        <mxCell id="2Cc2kU4OW--1ssd0tUTJ-20" value="Gender" style="shape=table;startSize=30;container=1;collapsible=1;childLayout=tableLayout;fixedRows=1;rowLines=0;fontStyle=1;align=center;resizeLast=1;html=1;" parent="1" vertex="1">
          <mxGeometry x="760" y="480" width="180" height="90" as="geometry" />
        </mxCell>
        <mxCell id="2Cc2kU4OW--1ssd0tUTJ-21" value="" style="shape=tableRow;horizontal=0;startSize=0;swimlaneHead=0;swimlaneBody=0;fillColor=none;collapsible=0;dropTarget=0;points=[[0,0.5],[1,0.5]];portConstraint=eastwest;top=0;left=0;right=0;bottom=1;" parent="2Cc2kU4OW--1ssd0tUTJ-20" vertex="1">
          <mxGeometry y="30" width="180" height="30" as="geometry" />
        </mxCell>
        <mxCell id="2Cc2kU4OW--1ssd0tUTJ-22" value="PK" style="shape=partialRectangle;connectable=0;fillColor=none;top=0;left=0;bottom=0;right=0;fontStyle=1;overflow=hidden;whiteSpace=wrap;html=1;" parent="2Cc2kU4OW--1ssd0tUTJ-21" vertex="1">
          <mxGeometry width="30" height="30" as="geometry">
            <mxRectangle width="30" height="30" as="alternateBounds" />
          </mxGeometry>
        </mxCell>
        <mxCell id="2Cc2kU4OW--1ssd0tUTJ-23" value="Id_gender" style="shape=partialRectangle;connectable=0;fillColor=none;top=0;left=0;bottom=0;right=0;align=left;spacingLeft=6;fontStyle=5;overflow=hidden;whiteSpace=wrap;html=1;" parent="2Cc2kU4OW--1ssd0tUTJ-21" vertex="1">
          <mxGeometry x="30" width="150" height="30" as="geometry">
            <mxRectangle width="150" height="30" as="alternateBounds" />
          </mxGeometry>
        </mxCell>
        <mxCell id="2Cc2kU4OW--1ssd0tUTJ-24" value="" style="shape=tableRow;horizontal=0;startSize=0;swimlaneHead=0;swimlaneBody=0;fillColor=none;collapsible=0;dropTarget=0;points=[[0,0.5],[1,0.5]];portConstraint=eastwest;top=0;left=0;right=0;bottom=0;" parent="2Cc2kU4OW--1ssd0tUTJ-20" vertex="1">
          <mxGeometry y="60" width="180" height="30" as="geometry" />
        </mxCell>
        <mxCell id="2Cc2kU4OW--1ssd0tUTJ-25" value="" style="shape=partialRectangle;connectable=0;fillColor=none;top=0;left=0;bottom=0;right=0;editable=1;overflow=hidden;whiteSpace=wrap;html=1;" parent="2Cc2kU4OW--1ssd0tUTJ-24" vertex="1">
          <mxGeometry width="30" height="30" as="geometry">
            <mxRectangle width="30" height="30" as="alternateBounds" />
          </mxGeometry>
        </mxCell>
        <mxCell id="2Cc2kU4OW--1ssd0tUTJ-26" value="Name" style="shape=partialRectangle;connectable=0;fillColor=none;top=0;left=0;bottom=0;right=0;align=left;spacingLeft=6;overflow=hidden;whiteSpace=wrap;html=1;" parent="2Cc2kU4OW--1ssd0tUTJ-24" vertex="1">
          <mxGeometry x="30" width="150" height="30" as="geometry">
            <mxRectangle width="150" height="30" as="alternateBounds" />
          </mxGeometry>
        </mxCell>
        <mxCell id="2Cc2kU4OW--1ssd0tUTJ-46" value="Editorial" style="shape=table;startSize=30;container=1;collapsible=1;childLayout=tableLayout;fixedRows=1;rowLines=0;fontStyle=1;align=center;resizeLast=1;html=1;" parent="1" vertex="1">
          <mxGeometry x="280" y="480" width="210" height="90" as="geometry" />
        </mxCell>
        <mxCell id="2Cc2kU4OW--1ssd0tUTJ-47" value="" style="shape=tableRow;horizontal=0;startSize=0;swimlaneHead=0;swimlaneBody=0;fillColor=none;collapsible=0;dropTarget=0;points=[[0,0.5],[1,0.5]];portConstraint=eastwest;top=0;left=0;right=0;bottom=1;" parent="2Cc2kU4OW--1ssd0tUTJ-46" vertex="1">
          <mxGeometry y="30" width="210" height="30" as="geometry" />
        </mxCell>
        <mxCell id="2Cc2kU4OW--1ssd0tUTJ-48" value="PK" style="shape=partialRectangle;connectable=0;fillColor=none;top=0;left=0;bottom=0;right=0;fontStyle=1;overflow=hidden;whiteSpace=wrap;html=1;" parent="2Cc2kU4OW--1ssd0tUTJ-47" vertex="1">
          <mxGeometry width="30" height="30" as="geometry">
            <mxRectangle width="30" height="30" as="alternateBounds" />
          </mxGeometry>
        </mxCell>
        <mxCell id="2Cc2kU4OW--1ssd0tUTJ-49" value="ID_editorial" style="shape=partialRectangle;connectable=0;fillColor=none;top=0;left=0;bottom=0;right=0;align=left;spacingLeft=6;fontStyle=5;overflow=hidden;whiteSpace=wrap;html=1;" parent="2Cc2kU4OW--1ssd0tUTJ-47" vertex="1">
          <mxGeometry x="30" width="180" height="30" as="geometry">
            <mxRectangle width="180" height="30" as="alternateBounds" />
          </mxGeometry>
        </mxCell>
        <mxCell id="2Cc2kU4OW--1ssd0tUTJ-50" style="shape=tableRow;horizontal=0;startSize=0;swimlaneHead=0;swimlaneBody=0;fillColor=none;collapsible=0;dropTarget=0;points=[[0,0.5],[1,0.5]];portConstraint=eastwest;top=0;left=0;right=0;bottom=0;" parent="2Cc2kU4OW--1ssd0tUTJ-46" vertex="1">
          <mxGeometry y="60" width="210" height="30" as="geometry" />
        </mxCell>
        <mxCell id="2Cc2kU4OW--1ssd0tUTJ-51" style="shape=partialRectangle;connectable=0;fillColor=none;top=0;left=0;bottom=0;right=0;editable=1;overflow=hidden;whiteSpace=wrap;html=1;" parent="2Cc2kU4OW--1ssd0tUTJ-50" vertex="1">
          <mxGeometry width="30" height="30" as="geometry">
            <mxRectangle width="30" height="30" as="alternateBounds" />
          </mxGeometry>
        </mxCell>
        <mxCell id="2Cc2kU4OW--1ssd0tUTJ-52" value="Name" style="shape=partialRectangle;connectable=0;fillColor=none;top=0;left=0;bottom=0;right=0;align=left;spacingLeft=6;overflow=hidden;whiteSpace=wrap;html=1;" parent="2Cc2kU4OW--1ssd0tUTJ-50" vertex="1">
          <mxGeometry x="30" width="180" height="30" as="geometry">
            <mxRectangle width="180" height="30" as="alternateBounds" />
          </mxGeometry>
        </mxCell>
        <mxCell id="2Cc2kU4OW--1ssd0tUTJ-53" value="Book" style="shape=table;startSize=30;container=1;collapsible=1;childLayout=tableLayout;fixedRows=1;rowLines=0;fontStyle=1;align=center;resizeLast=1;html=1;" parent="1" vertex="1">
          <mxGeometry x="530" y="130" width="180" height="120" as="geometry" />
        </mxCell>
        <mxCell id="2Cc2kU4OW--1ssd0tUTJ-54" value="" style="shape=tableRow;horizontal=0;startSize=0;swimlaneHead=0;swimlaneBody=0;fillColor=none;collapsible=0;dropTarget=0;points=[[0,0.5],[1,0.5]];portConstraint=eastwest;top=0;left=0;right=0;bottom=1;" parent="2Cc2kU4OW--1ssd0tUTJ-53" vertex="1">
          <mxGeometry y="30" width="180" height="30" as="geometry" />
        </mxCell>
        <mxCell id="2Cc2kU4OW--1ssd0tUTJ-55" value="PK" style="shape=partialRectangle;connectable=0;fillColor=none;top=0;left=0;bottom=0;right=0;fontStyle=1;overflow=hidden;whiteSpace=wrap;html=1;" parent="2Cc2kU4OW--1ssd0tUTJ-54" vertex="1">
          <mxGeometry width="30" height="30" as="geometry">
            <mxRectangle width="30" height="30" as="alternateBounds" />
          </mxGeometry>
        </mxCell>
        <mxCell id="2Cc2kU4OW--1ssd0tUTJ-56" value="ID_Book" style="shape=partialRectangle;connectable=0;fillColor=none;top=0;left=0;bottom=0;right=0;align=left;spacingLeft=6;fontStyle=5;overflow=hidden;whiteSpace=wrap;html=1;" parent="2Cc2kU4OW--1ssd0tUTJ-54" vertex="1">
          <mxGeometry x="30" width="150" height="30" as="geometry">
            <mxRectangle width="150" height="30" as="alternateBounds" />
          </mxGeometry>
        </mxCell>
        <mxCell id="2Cc2kU4OW--1ssd0tUTJ-57" value="" style="shape=tableRow;horizontal=0;startSize=0;swimlaneHead=0;swimlaneBody=0;fillColor=none;collapsible=0;dropTarget=0;points=[[0,0.5],[1,0.5]];portConstraint=eastwest;top=0;left=0;right=0;bottom=0;" parent="2Cc2kU4OW--1ssd0tUTJ-53" vertex="1">
          <mxGeometry y="60" width="180" height="30" as="geometry" />
        </mxCell>
        <mxCell id="2Cc2kU4OW--1ssd0tUTJ-58" value="" style="shape=partialRectangle;connectable=0;fillColor=none;top=0;left=0;bottom=0;right=0;editable=1;overflow=hidden;whiteSpace=wrap;html=1;" parent="2Cc2kU4OW--1ssd0tUTJ-57" vertex="1">
          <mxGeometry width="30" height="30" as="geometry">
            <mxRectangle width="30" height="30" as="alternateBounds" />
          </mxGeometry>
        </mxCell>
        <mxCell id="2Cc2kU4OW--1ssd0tUTJ-59" value="Title" style="shape=partialRectangle;connectable=0;fillColor=none;top=0;left=0;bottom=0;right=0;align=left;spacingLeft=6;overflow=hidden;whiteSpace=wrap;html=1;" parent="2Cc2kU4OW--1ssd0tUTJ-57" vertex="1">
          <mxGeometry x="30" width="150" height="30" as="geometry">
            <mxRectangle width="150" height="30" as="alternateBounds" />
          </mxGeometry>
        </mxCell>
        <mxCell id="d-HYMm5XjEATkBvdWQP0-444" value="" style="shape=tableRow;horizontal=0;startSize=0;swimlaneHead=0;swimlaneBody=0;fillColor=none;collapsible=0;dropTarget=0;points=[[0,0.5],[1,0.5]];portConstraint=eastwest;top=0;left=0;right=0;bottom=0;" vertex="1" parent="2Cc2kU4OW--1ssd0tUTJ-53">
          <mxGeometry y="90" width="180" height="30" as="geometry" />
        </mxCell>
        <mxCell id="d-HYMm5XjEATkBvdWQP0-445" value="" style="shape=partialRectangle;connectable=0;fillColor=none;top=0;left=0;bottom=0;right=0;editable=1;overflow=hidden;whiteSpace=wrap;html=1;" vertex="1" parent="d-HYMm5XjEATkBvdWQP0-444">
          <mxGeometry width="30" height="30" as="geometry">
            <mxRectangle width="30" height="30" as="alternateBounds" />
          </mxGeometry>
        </mxCell>
        <mxCell id="d-HYMm5XjEATkBvdWQP0-446" value="isbn" style="shape=partialRectangle;connectable=0;fillColor=none;top=0;left=0;bottom=0;right=0;align=left;spacingLeft=6;overflow=hidden;whiteSpace=wrap;html=1;" vertex="1" parent="d-HYMm5XjEATkBvdWQP0-444">
          <mxGeometry x="30" width="150" height="30" as="geometry">
            <mxRectangle width="150" height="30" as="alternateBounds" />
          </mxGeometry>
        </mxCell>
        <mxCell id="2Cc2kU4OW--1ssd0tUTJ-66" value="Book_genere" style="shape=table;startSize=30;container=1;collapsible=1;childLayout=tableLayout;fixedRows=1;rowLines=0;fontStyle=1;align=center;resizeLast=1;html=1;" parent="1" vertex="1">
          <mxGeometry x="760" y="330" width="180" height="90" as="geometry" />
        </mxCell>
        <mxCell id="2Cc2kU4OW--1ssd0tUTJ-67" value="" style="shape=tableRow;horizontal=0;startSize=0;swimlaneHead=0;swimlaneBody=0;fillColor=none;collapsible=0;dropTarget=0;points=[[0,0.5],[1,0.5]];portConstraint=eastwest;top=0;left=0;right=0;bottom=1;" parent="2Cc2kU4OW--1ssd0tUTJ-66" vertex="1">
          <mxGeometry y="30" width="180" height="30" as="geometry" />
        </mxCell>
        <mxCell id="2Cc2kU4OW--1ssd0tUTJ-68" value="PK/FK" style="shape=partialRectangle;connectable=0;fillColor=none;top=0;left=0;bottom=0;right=0;fontStyle=1;overflow=hidden;whiteSpace=wrap;html=1;" parent="2Cc2kU4OW--1ssd0tUTJ-67" vertex="1">
          <mxGeometry width="50" height="30" as="geometry">
            <mxRectangle width="50" height="30" as="alternateBounds" />
          </mxGeometry>
        </mxCell>
        <mxCell id="2Cc2kU4OW--1ssd0tUTJ-69" value="Id_Book" style="shape=partialRectangle;connectable=0;fillColor=none;top=0;left=0;bottom=0;right=0;align=left;spacingLeft=6;fontStyle=5;overflow=hidden;whiteSpace=wrap;html=1;" parent="2Cc2kU4OW--1ssd0tUTJ-67" vertex="1">
          <mxGeometry x="50" width="130" height="30" as="geometry">
            <mxRectangle width="130" height="30" as="alternateBounds" />
          </mxGeometry>
        </mxCell>
        <mxCell id="2Cc2kU4OW--1ssd0tUTJ-70" value="" style="shape=tableRow;horizontal=0;startSize=0;swimlaneHead=0;swimlaneBody=0;fillColor=none;collapsible=0;dropTarget=0;points=[[0,0.5],[1,0.5]];portConstraint=eastwest;top=0;left=0;right=0;bottom=0;" parent="2Cc2kU4OW--1ssd0tUTJ-66" vertex="1">
          <mxGeometry y="60" width="180" height="30" as="geometry" />
        </mxCell>
        <mxCell id="2Cc2kU4OW--1ssd0tUTJ-71" value="&lt;b&gt;PK/FK&lt;/b&gt;" style="shape=partialRectangle;connectable=0;fillColor=none;top=0;left=0;bottom=0;right=0;editable=1;overflow=hidden;whiteSpace=wrap;html=1;" parent="2Cc2kU4OW--1ssd0tUTJ-70" vertex="1">
          <mxGeometry width="50" height="30" as="geometry">
            <mxRectangle width="50" height="30" as="alternateBounds" />
          </mxGeometry>
        </mxCell>
        <mxCell id="2Cc2kU4OW--1ssd0tUTJ-72" value="&lt;b&gt;&lt;u&gt;ID_gender&lt;/u&gt;&lt;/b&gt;" style="shape=partialRectangle;connectable=0;fillColor=none;top=0;left=0;bottom=0;right=0;align=left;spacingLeft=6;overflow=hidden;whiteSpace=wrap;html=1;" parent="2Cc2kU4OW--1ssd0tUTJ-70" vertex="1">
          <mxGeometry x="50" width="130" height="30" as="geometry">
            <mxRectangle width="130" height="30" as="alternateBounds" />
          </mxGeometry>
        </mxCell>
        <mxCell id="2Cc2kU4OW--1ssd0tUTJ-79" value="Book_author" style="shape=table;startSize=30;container=1;collapsible=1;childLayout=tableLayout;fixedRows=1;rowLines=0;fontStyle=1;align=center;resizeLast=1;html=1;" parent="1" vertex="1">
          <mxGeometry x="535" y="330" width="180" height="90" as="geometry" />
        </mxCell>
        <mxCell id="2Cc2kU4OW--1ssd0tUTJ-80" value="" style="shape=tableRow;horizontal=0;startSize=0;swimlaneHead=0;swimlaneBody=0;fillColor=none;collapsible=0;dropTarget=0;points=[[0,0.5],[1,0.5]];portConstraint=eastwest;top=0;left=0;right=0;bottom=1;" parent="2Cc2kU4OW--1ssd0tUTJ-79" vertex="1">
          <mxGeometry y="30" width="180" height="30" as="geometry" />
        </mxCell>
        <mxCell id="2Cc2kU4OW--1ssd0tUTJ-81" value="PK/FK" style="shape=partialRectangle;connectable=0;fillColor=none;top=0;left=0;bottom=0;right=0;fontStyle=1;overflow=hidden;whiteSpace=wrap;html=1;" parent="2Cc2kU4OW--1ssd0tUTJ-80" vertex="1">
          <mxGeometry width="55" height="30" as="geometry">
            <mxRectangle width="55" height="30" as="alternateBounds" />
          </mxGeometry>
        </mxCell>
        <mxCell id="2Cc2kU4OW--1ssd0tUTJ-82" value="Id_libro" style="shape=partialRectangle;connectable=0;fillColor=none;top=0;left=0;bottom=0;right=0;align=left;spacingLeft=6;fontStyle=5;overflow=hidden;whiteSpace=wrap;html=1;" parent="2Cc2kU4OW--1ssd0tUTJ-80" vertex="1">
          <mxGeometry x="55" width="125" height="30" as="geometry">
            <mxRectangle width="125" height="30" as="alternateBounds" />
          </mxGeometry>
        </mxCell>
        <mxCell id="2Cc2kU4OW--1ssd0tUTJ-83" value="" style="shape=tableRow;horizontal=0;startSize=0;swimlaneHead=0;swimlaneBody=0;fillColor=none;collapsible=0;dropTarget=0;points=[[0,0.5],[1,0.5]];portConstraint=eastwest;top=0;left=0;right=0;bottom=0;" parent="2Cc2kU4OW--1ssd0tUTJ-79" vertex="1">
          <mxGeometry y="60" width="180" height="30" as="geometry" />
        </mxCell>
        <mxCell id="2Cc2kU4OW--1ssd0tUTJ-84" value="&lt;b&gt;PK/FK&lt;/b&gt;" style="shape=partialRectangle;connectable=0;fillColor=none;top=0;left=0;bottom=0;right=0;editable=1;overflow=hidden;whiteSpace=wrap;html=1;" parent="2Cc2kU4OW--1ssd0tUTJ-83" vertex="1">
          <mxGeometry width="55" height="30" as="geometry">
            <mxRectangle width="55" height="30" as="alternateBounds" />
          </mxGeometry>
        </mxCell>
        <mxCell id="2Cc2kU4OW--1ssd0tUTJ-85" value="&lt;b&gt;&lt;u&gt;Id_autor&lt;/u&gt;&lt;/b&gt;" style="shape=partialRectangle;connectable=0;fillColor=none;top=0;left=0;bottom=0;right=0;align=left;spacingLeft=6;overflow=hidden;whiteSpace=wrap;html=1;" parent="2Cc2kU4OW--1ssd0tUTJ-83" vertex="1">
          <mxGeometry x="55" width="125" height="30" as="geometry">
            <mxRectangle width="125" height="30" as="alternateBounds" />
          </mxGeometry>
        </mxCell>
        <mxCell id="2Cc2kU4OW--1ssd0tUTJ-86" value="Book_editorial" style="shape=table;startSize=30;container=1;collapsible=1;childLayout=tableLayout;fixedRows=1;rowLines=0;fontStyle=1;align=center;resizeLast=1;html=1;" parent="1" vertex="1">
          <mxGeometry x="295" y="330" width="180" height="90" as="geometry" />
        </mxCell>
        <mxCell id="2Cc2kU4OW--1ssd0tUTJ-87" value="" style="shape=tableRow;horizontal=0;startSize=0;swimlaneHead=0;swimlaneBody=0;fillColor=none;collapsible=0;dropTarget=0;points=[[0,0.5],[1,0.5]];portConstraint=eastwest;top=0;left=0;right=0;bottom=1;" parent="2Cc2kU4OW--1ssd0tUTJ-86" vertex="1">
          <mxGeometry y="30" width="180" height="30" as="geometry" />
        </mxCell>
        <mxCell id="2Cc2kU4OW--1ssd0tUTJ-88" value="PK/FK" style="shape=partialRectangle;connectable=0;fillColor=none;top=0;left=0;bottom=0;right=0;fontStyle=1;overflow=hidden;whiteSpace=wrap;html=1;" parent="2Cc2kU4OW--1ssd0tUTJ-87" vertex="1">
          <mxGeometry width="55" height="30" as="geometry">
            <mxRectangle width="55" height="30" as="alternateBounds" />
          </mxGeometry>
        </mxCell>
        <mxCell id="2Cc2kU4OW--1ssd0tUTJ-89" value="Id_libro" style="shape=partialRectangle;connectable=0;fillColor=none;top=0;left=0;bottom=0;right=0;align=left;spacingLeft=6;fontStyle=5;overflow=hidden;whiteSpace=wrap;html=1;" parent="2Cc2kU4OW--1ssd0tUTJ-87" vertex="1">
          <mxGeometry x="55" width="125" height="30" as="geometry">
            <mxRectangle width="125" height="30" as="alternateBounds" />
          </mxGeometry>
        </mxCell>
        <mxCell id="2Cc2kU4OW--1ssd0tUTJ-90" value="" style="shape=tableRow;horizontal=0;startSize=0;swimlaneHead=0;swimlaneBody=0;fillColor=none;collapsible=0;dropTarget=0;points=[[0,0.5],[1,0.5]];portConstraint=eastwest;top=0;left=0;right=0;bottom=0;" parent="2Cc2kU4OW--1ssd0tUTJ-86" vertex="1">
          <mxGeometry y="60" width="180" height="30" as="geometry" />
        </mxCell>
        <mxCell id="2Cc2kU4OW--1ssd0tUTJ-91" value="&lt;b&gt;PK/FK&lt;/b&gt;" style="shape=partialRectangle;connectable=0;fillColor=none;top=0;left=0;bottom=0;right=0;editable=1;overflow=hidden;whiteSpace=wrap;html=1;" parent="2Cc2kU4OW--1ssd0tUTJ-90" vertex="1">
          <mxGeometry width="55" height="30" as="geometry">
            <mxRectangle width="55" height="30" as="alternateBounds" />
          </mxGeometry>
        </mxCell>
        <mxCell id="2Cc2kU4OW--1ssd0tUTJ-92" value="&lt;b&gt;&lt;u&gt;ID_editorial&lt;/u&gt;&lt;/b&gt;" style="shape=partialRectangle;connectable=0;fillColor=none;top=0;left=0;bottom=0;right=0;align=left;spacingLeft=6;overflow=hidden;whiteSpace=wrap;html=1;" parent="2Cc2kU4OW--1ssd0tUTJ-90" vertex="1">
          <mxGeometry x="55" width="125" height="30" as="geometry">
            <mxRectangle width="125" height="30" as="alternateBounds" />
          </mxGeometry>
        </mxCell>
        <mxCell id="2Cc2kU4OW--1ssd0tUTJ-93" value="" style="endArrow=none;html=1;rounded=0;" parent="1" source="2Cc2kU4OW--1ssd0tUTJ-46" target="2Cc2kU4OW--1ssd0tUTJ-86" edge="1">
          <mxGeometry relative="1" as="geometry">
            <mxPoint x="500" y="270" as="sourcePoint" />
            <mxPoint x="660" y="270" as="targetPoint" />
          </mxGeometry>
        </mxCell>
        <mxCell id="d-HYMm5XjEATkBvdWQP0-10" value="(1, n)" style="edgeLabel;html=1;align=center;verticalAlign=middle;resizable=0;points=[];" vertex="1" connectable="0" parent="2Cc2kU4OW--1ssd0tUTJ-93">
          <mxGeometry x="0.492" y="-1" relative="1" as="geometry">
            <mxPoint x="-16" y="-5" as="offset" />
          </mxGeometry>
        </mxCell>
        <mxCell id="d-HYMm5XjEATkBvdWQP0-11" value="(1, 1)" style="edgeLabel;html=1;align=center;verticalAlign=middle;resizable=0;points=[];" vertex="1" connectable="0" parent="2Cc2kU4OW--1ssd0tUTJ-93">
          <mxGeometry x="-0.6244" relative="1" as="geometry">
            <mxPoint x="15" as="offset" />
          </mxGeometry>
        </mxCell>
        <mxCell id="2Cc2kU4OW--1ssd0tUTJ-94" value="" style="endArrow=none;html=1;rounded=0;" parent="1" source="2Cc2kU4OW--1ssd0tUTJ-1" target="2Cc2kU4OW--1ssd0tUTJ-83" edge="1">
          <mxGeometry relative="1" as="geometry">
            <mxPoint x="500" y="270" as="sourcePoint" />
            <mxPoint x="660" y="270" as="targetPoint" />
          </mxGeometry>
        </mxCell>
        <mxCell id="d-HYMm5XjEATkBvdWQP0-12" value="(1, n)" style="edgeLabel;html=1;align=center;verticalAlign=middle;resizable=0;points=[];" vertex="1" connectable="0" parent="2Cc2kU4OW--1ssd0tUTJ-94">
          <mxGeometry x="0.5833" y="2" relative="1" as="geometry">
            <mxPoint x="16" y="-2" as="offset" />
          </mxGeometry>
        </mxCell>
        <mxCell id="d-HYMm5XjEATkBvdWQP0-432" value="(1, 1)" style="edgeLabel;html=1;align=center;verticalAlign=middle;resizable=0;points=[];" vertex="1" connectable="0" parent="2Cc2kU4OW--1ssd0tUTJ-94">
          <mxGeometry x="-0.7822" relative="1" as="geometry">
            <mxPoint x="-18" y="-4" as="offset" />
          </mxGeometry>
        </mxCell>
        <mxCell id="2Cc2kU4OW--1ssd0tUTJ-95" value="" style="endArrow=none;html=1;rounded=0;exitX=0.5;exitY=0;exitDx=0;exitDy=0;" parent="1" source="2Cc2kU4OW--1ssd0tUTJ-20" target="2Cc2kU4OW--1ssd0tUTJ-66" edge="1">
          <mxGeometry relative="1" as="geometry">
            <mxPoint x="500" y="270" as="sourcePoint" />
            <mxPoint x="660" y="270" as="targetPoint" />
          </mxGeometry>
        </mxCell>
        <mxCell id="d-HYMm5XjEATkBvdWQP0-433" value="(1, n)" style="edgeLabel;html=1;align=center;verticalAlign=middle;resizable=0;points=[];" vertex="1" connectable="0" parent="2Cc2kU4OW--1ssd0tUTJ-95">
          <mxGeometry x="0.4056" y="1" relative="1" as="geometry">
            <mxPoint x="16" y="-7" as="offset" />
          </mxGeometry>
        </mxCell>
        <mxCell id="d-HYMm5XjEATkBvdWQP0-434" value="(1, 1)" style="edgeLabel;html=1;align=center;verticalAlign=middle;resizable=0;points=[];" vertex="1" connectable="0" parent="2Cc2kU4OW--1ssd0tUTJ-95">
          <mxGeometry x="-0.6778" y="3" relative="1" as="geometry">
            <mxPoint x="-17" as="offset" />
          </mxGeometry>
        </mxCell>
        <mxCell id="2Cc2kU4OW--1ssd0tUTJ-96" value="" style="endArrow=none;html=1;rounded=0;" parent="1" source="2Cc2kU4OW--1ssd0tUTJ-86" target="2Cc2kU4OW--1ssd0tUTJ-53" edge="1">
          <mxGeometry relative="1" as="geometry">
            <mxPoint x="500" y="130" as="sourcePoint" />
            <mxPoint x="660" y="130" as="targetPoint" />
          </mxGeometry>
        </mxCell>
        <mxCell id="d-HYMm5XjEATkBvdWQP0-8" value="(1, 1)" style="edgeLabel;html=1;align=center;verticalAlign=middle;resizable=0;points=[];" vertex="1" connectable="0" parent="2Cc2kU4OW--1ssd0tUTJ-96">
          <mxGeometry x="0.7513" y="1" relative="1" as="geometry">
            <mxPoint x="19" y="1" as="offset" />
          </mxGeometry>
        </mxCell>
        <mxCell id="d-HYMm5XjEATkBvdWQP0-9" value="(1, n)" style="edgeLabel;html=1;align=center;verticalAlign=middle;resizable=0;points=[];" vertex="1" connectable="0" parent="2Cc2kU4OW--1ssd0tUTJ-96">
          <mxGeometry x="-0.6624" y="1" relative="1" as="geometry">
            <mxPoint x="-29" y="4" as="offset" />
          </mxGeometry>
        </mxCell>
        <mxCell id="2Cc2kU4OW--1ssd0tUTJ-97" value="" style="endArrow=none;html=1;rounded=0;exitX=0.5;exitY=0;exitDx=0;exitDy=0;" parent="1" source="2Cc2kU4OW--1ssd0tUTJ-79" target="2Cc2kU4OW--1ssd0tUTJ-53" edge="1">
          <mxGeometry relative="1" as="geometry">
            <mxPoint x="500" y="130" as="sourcePoint" />
            <mxPoint x="619.2105263157898" y="250" as="targetPoint" />
          </mxGeometry>
        </mxCell>
        <mxCell id="d-HYMm5XjEATkBvdWQP0-6" value="(1, 1)" style="edgeLabel;html=1;align=center;verticalAlign=middle;resizable=0;points=[];" vertex="1" connectable="0" parent="2Cc2kU4OW--1ssd0tUTJ-97">
          <mxGeometry x="0.5876" y="-1" relative="1" as="geometry">
            <mxPoint x="16" y="-7" as="offset" />
          </mxGeometry>
        </mxCell>
        <mxCell id="d-HYMm5XjEATkBvdWQP0-7" value="(1, n)" style="edgeLabel;html=1;align=center;verticalAlign=middle;resizable=0;points=[];" vertex="1" connectable="0" parent="2Cc2kU4OW--1ssd0tUTJ-97">
          <mxGeometry x="-0.728" y="-1" relative="1" as="geometry">
            <mxPoint x="-17" as="offset" />
          </mxGeometry>
        </mxCell>
        <mxCell id="2Cc2kU4OW--1ssd0tUTJ-98" value="" style="endArrow=none;html=1;rounded=0;" parent="1" source="2Cc2kU4OW--1ssd0tUTJ-53" target="2Cc2kU4OW--1ssd0tUTJ-66" edge="1">
          <mxGeometry relative="1" as="geometry">
            <mxPoint x="500" y="130" as="sourcePoint" />
            <mxPoint x="660" y="130" as="targetPoint" />
          </mxGeometry>
        </mxCell>
        <mxCell id="d-HYMm5XjEATkBvdWQP0-1" value="(1, 1)" style="edgeLabel;html=1;align=center;verticalAlign=middle;resizable=0;points=[];" vertex="1" connectable="0" parent="2Cc2kU4OW--1ssd0tUTJ-98">
          <mxGeometry x="-0.6874" y="2" relative="1" as="geometry">
            <mxPoint x="19" y="-1" as="offset" />
          </mxGeometry>
        </mxCell>
        <mxCell id="d-HYMm5XjEATkBvdWQP0-2" value="(1, n)" style="edgeLabel;html=1;align=center;verticalAlign=middle;resizable=0;points=[];" vertex="1" connectable="0" parent="2Cc2kU4OW--1ssd0tUTJ-98">
          <mxGeometry x="0.5933" y="2" relative="1" as="geometry">
            <mxPoint x="-15" y="8" as="offset" />
          </mxGeometry>
        </mxCell>
        <mxCell id="2Cc2kU4OW--1ssd0tUTJ-99" value="Magazin_gender" style="shape=table;startSize=30;container=1;collapsible=1;childLayout=tableLayout;fixedRows=1;rowLines=0;fontStyle=1;align=center;resizeLast=1;html=1;" parent="1" vertex="1">
          <mxGeometry x="1020" y="390" width="180" height="90" as="geometry" />
        </mxCell>
        <mxCell id="2Cc2kU4OW--1ssd0tUTJ-100" value="" style="shape=tableRow;horizontal=0;startSize=0;swimlaneHead=0;swimlaneBody=0;fillColor=none;collapsible=0;dropTarget=0;points=[[0,0.5],[1,0.5]];portConstraint=eastwest;top=0;left=0;right=0;bottom=1;" parent="2Cc2kU4OW--1ssd0tUTJ-99" vertex="1">
          <mxGeometry y="30" width="180" height="30" as="geometry" />
        </mxCell>
        <mxCell id="2Cc2kU4OW--1ssd0tUTJ-101" value="PK" style="shape=partialRectangle;connectable=0;fillColor=none;top=0;left=0;bottom=0;right=0;fontStyle=1;overflow=hidden;whiteSpace=wrap;html=1;" parent="2Cc2kU4OW--1ssd0tUTJ-100" vertex="1">
          <mxGeometry width="30" height="30" as="geometry">
            <mxRectangle width="30" height="30" as="alternateBounds" />
          </mxGeometry>
        </mxCell>
        <mxCell id="2Cc2kU4OW--1ssd0tUTJ-102" value="Id_revista" style="shape=partialRectangle;connectable=0;fillColor=none;top=0;left=0;bottom=0;right=0;align=left;spacingLeft=6;fontStyle=5;overflow=hidden;whiteSpace=wrap;html=1;" parent="2Cc2kU4OW--1ssd0tUTJ-100" vertex="1">
          <mxGeometry x="30" width="150" height="30" as="geometry">
            <mxRectangle width="150" height="30" as="alternateBounds" />
          </mxGeometry>
        </mxCell>
        <mxCell id="2Cc2kU4OW--1ssd0tUTJ-103" value="" style="shape=tableRow;horizontal=0;startSize=0;swimlaneHead=0;swimlaneBody=0;fillColor=none;collapsible=0;dropTarget=0;points=[[0,0.5],[1,0.5]];portConstraint=eastwest;top=0;left=0;right=0;bottom=0;" parent="2Cc2kU4OW--1ssd0tUTJ-99" vertex="1">
          <mxGeometry y="60" width="180" height="30" as="geometry" />
        </mxCell>
        <mxCell id="2Cc2kU4OW--1ssd0tUTJ-104" value="&lt;b&gt;PK&lt;/b&gt;" style="shape=partialRectangle;connectable=0;fillColor=none;top=0;left=0;bottom=0;right=0;editable=1;overflow=hidden;whiteSpace=wrap;html=1;" parent="2Cc2kU4OW--1ssd0tUTJ-103" vertex="1">
          <mxGeometry width="30" height="30" as="geometry">
            <mxRectangle width="30" height="30" as="alternateBounds" />
          </mxGeometry>
        </mxCell>
        <mxCell id="2Cc2kU4OW--1ssd0tUTJ-105" value="&lt;b&gt;&lt;u&gt;ID_genero&lt;/u&gt;&lt;/b&gt;" style="shape=partialRectangle;connectable=0;fillColor=none;top=0;left=0;bottom=0;right=0;align=left;spacingLeft=6;overflow=hidden;whiteSpace=wrap;html=1;" parent="2Cc2kU4OW--1ssd0tUTJ-103" vertex="1">
          <mxGeometry x="30" width="150" height="30" as="geometry">
            <mxRectangle width="150" height="30" as="alternateBounds" />
          </mxGeometry>
        </mxCell>
        <mxCell id="2Cc2kU4OW--1ssd0tUTJ-106" value="Magazine" style="shape=table;startSize=30;container=1;collapsible=1;childLayout=tableLayout;fixedRows=1;rowLines=0;fontStyle=1;align=center;resizeLast=1;html=1;" parent="1" vertex="1">
          <mxGeometry x="1161" y="220" width="180" height="120" as="geometry" />
        </mxCell>
        <mxCell id="2Cc2kU4OW--1ssd0tUTJ-107" value="" style="shape=tableRow;horizontal=0;startSize=0;swimlaneHead=0;swimlaneBody=0;fillColor=none;collapsible=0;dropTarget=0;points=[[0,0.5],[1,0.5]];portConstraint=eastwest;top=0;left=0;right=0;bottom=1;" parent="2Cc2kU4OW--1ssd0tUTJ-106" vertex="1">
          <mxGeometry y="30" width="180" height="30" as="geometry" />
        </mxCell>
        <mxCell id="2Cc2kU4OW--1ssd0tUTJ-108" value="PK" style="shape=partialRectangle;connectable=0;fillColor=none;top=0;left=0;bottom=0;right=0;fontStyle=1;overflow=hidden;whiteSpace=wrap;html=1;" parent="2Cc2kU4OW--1ssd0tUTJ-107" vertex="1">
          <mxGeometry width="30" height="30" as="geometry">
            <mxRectangle width="30" height="30" as="alternateBounds" />
          </mxGeometry>
        </mxCell>
        <mxCell id="2Cc2kU4OW--1ssd0tUTJ-109" value="Id_Magazine" style="shape=partialRectangle;connectable=0;fillColor=none;top=0;left=0;bottom=0;right=0;align=left;spacingLeft=6;fontStyle=5;overflow=hidden;whiteSpace=wrap;html=1;" parent="2Cc2kU4OW--1ssd0tUTJ-107" vertex="1">
          <mxGeometry x="30" width="150" height="30" as="geometry">
            <mxRectangle width="150" height="30" as="alternateBounds" />
          </mxGeometry>
        </mxCell>
        <mxCell id="2Cc2kU4OW--1ssd0tUTJ-110" value="" style="shape=tableRow;horizontal=0;startSize=0;swimlaneHead=0;swimlaneBody=0;fillColor=none;collapsible=0;dropTarget=0;points=[[0,0.5],[1,0.5]];portConstraint=eastwest;top=0;left=0;right=0;bottom=0;" parent="2Cc2kU4OW--1ssd0tUTJ-106" vertex="1">
          <mxGeometry y="60" width="180" height="30" as="geometry" />
        </mxCell>
        <mxCell id="2Cc2kU4OW--1ssd0tUTJ-111" value="" style="shape=partialRectangle;connectable=0;fillColor=none;top=0;left=0;bottom=0;right=0;editable=1;overflow=hidden;whiteSpace=wrap;html=1;" parent="2Cc2kU4OW--1ssd0tUTJ-110" vertex="1">
          <mxGeometry width="30" height="30" as="geometry">
            <mxRectangle width="30" height="30" as="alternateBounds" />
          </mxGeometry>
        </mxCell>
        <mxCell id="2Cc2kU4OW--1ssd0tUTJ-112" value="Title" style="shape=partialRectangle;connectable=0;fillColor=none;top=0;left=0;bottom=0;right=0;align=left;spacingLeft=6;overflow=hidden;whiteSpace=wrap;html=1;" parent="2Cc2kU4OW--1ssd0tUTJ-110" vertex="1">
          <mxGeometry x="30" width="150" height="30" as="geometry">
            <mxRectangle width="150" height="30" as="alternateBounds" />
          </mxGeometry>
        </mxCell>
        <mxCell id="d-HYMm5XjEATkBvdWQP0-447" value="" style="shape=tableRow;horizontal=0;startSize=0;swimlaneHead=0;swimlaneBody=0;fillColor=none;collapsible=0;dropTarget=0;points=[[0,0.5],[1,0.5]];portConstraint=eastwest;top=0;left=0;right=0;bottom=0;" vertex="1" parent="2Cc2kU4OW--1ssd0tUTJ-106">
          <mxGeometry y="90" width="180" height="30" as="geometry" />
        </mxCell>
        <mxCell id="d-HYMm5XjEATkBvdWQP0-448" value="" style="shape=partialRectangle;connectable=0;fillColor=none;top=0;left=0;bottom=0;right=0;editable=1;overflow=hidden;whiteSpace=wrap;html=1;" vertex="1" parent="d-HYMm5XjEATkBvdWQP0-447">
          <mxGeometry width="30" height="30" as="geometry">
            <mxRectangle width="30" height="30" as="alternateBounds" />
          </mxGeometry>
        </mxCell>
        <mxCell id="d-HYMm5XjEATkBvdWQP0-449" value="isbn" style="shape=partialRectangle;connectable=0;fillColor=none;top=0;left=0;bottom=0;right=0;align=left;spacingLeft=6;overflow=hidden;whiteSpace=wrap;html=1;" vertex="1" parent="d-HYMm5XjEATkBvdWQP0-447">
          <mxGeometry x="30" width="150" height="30" as="geometry">
            <mxRectangle width="150" height="30" as="alternateBounds" />
          </mxGeometry>
        </mxCell>
        <mxCell id="2Cc2kU4OW--1ssd0tUTJ-113" value="" style="endArrow=none;html=1;rounded=0;" parent="1" source="2Cc2kU4OW--1ssd0tUTJ-20" target="2Cc2kU4OW--1ssd0tUTJ-99" edge="1">
          <mxGeometry relative="1" as="geometry">
            <mxPoint x="1080" y="420" as="sourcePoint" />
            <mxPoint x="1240" y="420" as="targetPoint" />
          </mxGeometry>
        </mxCell>
        <mxCell id="d-HYMm5XjEATkBvdWQP0-435" value="(1, 1)" style="edgeLabel;html=1;align=center;verticalAlign=middle;resizable=0;points=[];" vertex="1" connectable="0" parent="2Cc2kU4OW--1ssd0tUTJ-113">
          <mxGeometry x="-0.7748" y="-1" relative="1" as="geometry">
            <mxPoint x="11" y="8" as="offset" />
          </mxGeometry>
        </mxCell>
        <mxCell id="d-HYMm5XjEATkBvdWQP0-436" value="(1, n)" style="edgeLabel;html=1;align=center;verticalAlign=middle;resizable=0;points=[];" vertex="1" connectable="0" parent="2Cc2kU4OW--1ssd0tUTJ-113">
          <mxGeometry x="0.6804" y="-1" relative="1" as="geometry">
            <mxPoint x="-7" y="-12" as="offset" />
          </mxGeometry>
        </mxCell>
        <mxCell id="2Cc2kU4OW--1ssd0tUTJ-114" value="" style="endArrow=none;html=1;rounded=0;" parent="1" source="2Cc2kU4OW--1ssd0tUTJ-99" target="2Cc2kU4OW--1ssd0tUTJ-106" edge="1">
          <mxGeometry relative="1" as="geometry">
            <mxPoint x="1080" y="270" as="sourcePoint" />
            <mxPoint x="1240" y="270" as="targetPoint" />
          </mxGeometry>
        </mxCell>
        <mxCell id="d-HYMm5XjEATkBvdWQP0-437" value="(1, n)" style="edgeLabel;html=1;align=center;verticalAlign=middle;resizable=0;points=[];" vertex="1" connectable="0" parent="2Cc2kU4OW--1ssd0tUTJ-114">
          <mxGeometry x="-0.7641" y="3" relative="1" as="geometry">
            <mxPoint x="-14" y="-7" as="offset" />
          </mxGeometry>
        </mxCell>
        <mxCell id="d-HYMm5XjEATkBvdWQP0-450" value="(0, n)" style="edgeLabel;html=1;align=center;verticalAlign=middle;resizable=0;points=[];" vertex="1" connectable="0" parent="2Cc2kU4OW--1ssd0tUTJ-114">
          <mxGeometry x="0.6357" y="3" relative="1" as="geometry">
            <mxPoint x="24" y="3" as="offset" />
          </mxGeometry>
        </mxCell>
        <mxCell id="2Cc2kU4OW--1ssd0tUTJ-121" value="Exemplar" style="shape=table;startSize=30;container=1;collapsible=1;childLayout=tableLayout;fixedRows=1;rowLines=0;fontStyle=1;align=center;resizeLast=1;html=1;" parent="1" vertex="1">
          <mxGeometry x="880" y="150" width="180" height="120" as="geometry" />
        </mxCell>
        <mxCell id="2Cc2kU4OW--1ssd0tUTJ-122" value="" style="shape=tableRow;horizontal=0;startSize=0;swimlaneHead=0;swimlaneBody=0;fillColor=none;collapsible=0;dropTarget=0;points=[[0,0.5],[1,0.5]];portConstraint=eastwest;top=0;left=0;right=0;bottom=1;" parent="2Cc2kU4OW--1ssd0tUTJ-121" vertex="1">
          <mxGeometry y="30" width="180" height="30" as="geometry" />
        </mxCell>
        <mxCell id="2Cc2kU4OW--1ssd0tUTJ-123" value="PK" style="shape=partialRectangle;connectable=0;fillColor=none;top=0;left=0;bottom=0;right=0;fontStyle=1;overflow=hidden;whiteSpace=wrap;html=1;" parent="2Cc2kU4OW--1ssd0tUTJ-122" vertex="1">
          <mxGeometry width="30" height="30" as="geometry">
            <mxRectangle width="30" height="30" as="alternateBounds" />
          </mxGeometry>
        </mxCell>
        <mxCell id="2Cc2kU4OW--1ssd0tUTJ-124" value="Id_exemplar" style="shape=partialRectangle;connectable=0;fillColor=none;top=0;left=0;bottom=0;right=0;align=left;spacingLeft=6;fontStyle=5;overflow=hidden;whiteSpace=wrap;html=1;" parent="2Cc2kU4OW--1ssd0tUTJ-122" vertex="1">
          <mxGeometry x="30" width="150" height="30" as="geometry">
            <mxRectangle width="150" height="30" as="alternateBounds" />
          </mxGeometry>
        </mxCell>
        <mxCell id="2Cc2kU4OW--1ssd0tUTJ-125" value="" style="shape=tableRow;horizontal=0;startSize=0;swimlaneHead=0;swimlaneBody=0;fillColor=none;collapsible=0;dropTarget=0;points=[[0,0.5],[1,0.5]];portConstraint=eastwest;top=0;left=0;right=0;bottom=0;" parent="2Cc2kU4OW--1ssd0tUTJ-121" vertex="1">
          <mxGeometry y="60" width="180" height="30" as="geometry" />
        </mxCell>
        <mxCell id="2Cc2kU4OW--1ssd0tUTJ-126" value="Fk" style="shape=partialRectangle;connectable=0;fillColor=none;top=0;left=0;bottom=0;right=0;editable=1;overflow=hidden;whiteSpace=wrap;html=1;" parent="2Cc2kU4OW--1ssd0tUTJ-125" vertex="1">
          <mxGeometry width="30" height="30" as="geometry">
            <mxRectangle width="30" height="30" as="alternateBounds" />
          </mxGeometry>
        </mxCell>
        <mxCell id="2Cc2kU4OW--1ssd0tUTJ-127" value="Id_book" style="shape=partialRectangle;connectable=0;fillColor=none;top=0;left=0;bottom=0;right=0;align=left;spacingLeft=6;overflow=hidden;whiteSpace=wrap;html=1;" parent="2Cc2kU4OW--1ssd0tUTJ-125" vertex="1">
          <mxGeometry x="30" width="150" height="30" as="geometry">
            <mxRectangle width="150" height="30" as="alternateBounds" />
          </mxGeometry>
        </mxCell>
        <mxCell id="2Cc2kU4OW--1ssd0tUTJ-128" value="" style="shape=tableRow;horizontal=0;startSize=0;swimlaneHead=0;swimlaneBody=0;fillColor=none;collapsible=0;dropTarget=0;points=[[0,0.5],[1,0.5]];portConstraint=eastwest;top=0;left=0;right=0;bottom=0;" parent="2Cc2kU4OW--1ssd0tUTJ-121" vertex="1">
          <mxGeometry y="90" width="180" height="30" as="geometry" />
        </mxCell>
        <mxCell id="2Cc2kU4OW--1ssd0tUTJ-129" value="Fk" style="shape=partialRectangle;connectable=0;fillColor=none;top=0;left=0;bottom=0;right=0;editable=1;overflow=hidden;whiteSpace=wrap;html=1;" parent="2Cc2kU4OW--1ssd0tUTJ-128" vertex="1">
          <mxGeometry width="30" height="30" as="geometry">
            <mxRectangle width="30" height="30" as="alternateBounds" />
          </mxGeometry>
        </mxCell>
        <mxCell id="2Cc2kU4OW--1ssd0tUTJ-130" value="Id_magazine" style="shape=partialRectangle;connectable=0;fillColor=none;top=0;left=0;bottom=0;right=0;align=left;spacingLeft=6;overflow=hidden;whiteSpace=wrap;html=1;" parent="2Cc2kU4OW--1ssd0tUTJ-128" vertex="1">
          <mxGeometry x="30" width="150" height="30" as="geometry">
            <mxRectangle width="150" height="30" as="alternateBounds" />
          </mxGeometry>
        </mxCell>
        <mxCell id="2Cc2kU4OW--1ssd0tUTJ-134" value="" style="endArrow=none;html=1;rounded=0;" parent="1" source="2Cc2kU4OW--1ssd0tUTJ-53" target="2Cc2kU4OW--1ssd0tUTJ-121" edge="1">
          <mxGeometry relative="1" as="geometry">
            <mxPoint x="930" y="130" as="sourcePoint" />
            <mxPoint x="1090" y="130" as="targetPoint" />
          </mxGeometry>
        </mxCell>
        <mxCell id="d-HYMm5XjEATkBvdWQP0-27" value="(1, 1)" style="edgeLabel;html=1;align=center;verticalAlign=middle;resizable=0;points=[];" vertex="1" connectable="0" parent="2Cc2kU4OW--1ssd0tUTJ-134">
          <mxGeometry x="-0.9182" y="-1" relative="1" as="geometry">
            <mxPoint x="18" y="-12" as="offset" />
          </mxGeometry>
        </mxCell>
        <mxCell id="2Cc2kU4OW--1ssd0tUTJ-135" value="" style="endArrow=none;html=1;rounded=0;" parent="1" source="2Cc2kU4OW--1ssd0tUTJ-121" target="2Cc2kU4OW--1ssd0tUTJ-106" edge="1">
          <mxGeometry relative="1" as="geometry">
            <mxPoint x="930" y="130" as="sourcePoint" />
            <mxPoint x="1090" y="130" as="targetPoint" />
          </mxGeometry>
        </mxCell>
        <mxCell id="d-HYMm5XjEATkBvdWQP0-19" value="(1, 1)" style="edgeLabel;html=1;align=center;verticalAlign=middle;resizable=0;points=[];" vertex="1" connectable="0" parent="2Cc2kU4OW--1ssd0tUTJ-135">
          <mxGeometry x="-0.8203" y="2" relative="1" as="geometry">
            <mxPoint x="11" y="-11" as="offset" />
          </mxGeometry>
        </mxCell>
        <mxCell id="d-HYMm5XjEATkBvdWQP0-20" value="(0, n)" style="edgeLabel;html=1;align=center;verticalAlign=middle;resizable=0;points=[];" vertex="1" connectable="0" parent="2Cc2kU4OW--1ssd0tUTJ-135">
          <mxGeometry x="0.6073" y="-2" relative="1" as="geometry">
            <mxPoint y="8" as="offset" />
          </mxGeometry>
        </mxCell>
        <mxCell id="2Cc2kU4OW--1ssd0tUTJ-136" value="Giveaway" style="shape=table;startSize=30;container=1;collapsible=1;childLayout=tableLayout;fixedRows=1;rowLines=0;fontStyle=1;align=center;resizeLast=1;html=1;" parent="1" vertex="1">
          <mxGeometry x="1230" y="-140" width="180" height="240" as="geometry" />
        </mxCell>
        <mxCell id="2Cc2kU4OW--1ssd0tUTJ-137" value="" style="shape=tableRow;horizontal=0;startSize=0;swimlaneHead=0;swimlaneBody=0;fillColor=none;collapsible=0;dropTarget=0;points=[[0,0.5],[1,0.5]];portConstraint=eastwest;top=0;left=0;right=0;bottom=1;" parent="2Cc2kU4OW--1ssd0tUTJ-136" vertex="1">
          <mxGeometry y="30" width="180" height="30" as="geometry" />
        </mxCell>
        <mxCell id="2Cc2kU4OW--1ssd0tUTJ-138" value="PK" style="shape=partialRectangle;connectable=0;fillColor=none;top=0;left=0;bottom=0;right=0;fontStyle=1;overflow=hidden;whiteSpace=wrap;html=1;" parent="2Cc2kU4OW--1ssd0tUTJ-137" vertex="1">
          <mxGeometry width="30" height="30" as="geometry">
            <mxRectangle width="30" height="30" as="alternateBounds" />
          </mxGeometry>
        </mxCell>
        <mxCell id="2Cc2kU4OW--1ssd0tUTJ-139" value="Id_giveaway" style="shape=partialRectangle;connectable=0;fillColor=none;top=0;left=0;bottom=0;right=0;align=left;spacingLeft=6;fontStyle=5;overflow=hidden;whiteSpace=wrap;html=1;" parent="2Cc2kU4OW--1ssd0tUTJ-137" vertex="1">
          <mxGeometry x="30" width="150" height="30" as="geometry">
            <mxRectangle width="150" height="30" as="alternateBounds" />
          </mxGeometry>
        </mxCell>
        <mxCell id="2Cc2kU4OW--1ssd0tUTJ-140" value="" style="shape=tableRow;horizontal=0;startSize=0;swimlaneHead=0;swimlaneBody=0;fillColor=none;collapsible=0;dropTarget=0;points=[[0,0.5],[1,0.5]];portConstraint=eastwest;top=0;left=0;right=0;bottom=0;" parent="2Cc2kU4OW--1ssd0tUTJ-136" vertex="1">
          <mxGeometry y="60" width="180" height="30" as="geometry" />
        </mxCell>
        <mxCell id="2Cc2kU4OW--1ssd0tUTJ-141" value="FK" style="shape=partialRectangle;connectable=0;fillColor=none;top=0;left=0;bottom=0;right=0;editable=1;overflow=hidden;whiteSpace=wrap;html=1;" parent="2Cc2kU4OW--1ssd0tUTJ-140" vertex="1">
          <mxGeometry width="30" height="30" as="geometry">
            <mxRectangle width="30" height="30" as="alternateBounds" />
          </mxGeometry>
        </mxCell>
        <mxCell id="2Cc2kU4OW--1ssd0tUTJ-142" value="id_exemplar" style="shape=partialRectangle;connectable=0;fillColor=none;top=0;left=0;bottom=0;right=0;align=left;spacingLeft=6;overflow=hidden;whiteSpace=wrap;html=1;" parent="2Cc2kU4OW--1ssd0tUTJ-140" vertex="1">
          <mxGeometry x="30" width="150" height="30" as="geometry">
            <mxRectangle width="150" height="30" as="alternateBounds" />
          </mxGeometry>
        </mxCell>
        <mxCell id="2Cc2kU4OW--1ssd0tUTJ-143" value="" style="shape=tableRow;horizontal=0;startSize=0;swimlaneHead=0;swimlaneBody=0;fillColor=none;collapsible=0;dropTarget=0;points=[[0,0.5],[1,0.5]];portConstraint=eastwest;top=0;left=0;right=0;bottom=0;" parent="2Cc2kU4OW--1ssd0tUTJ-136" vertex="1">
          <mxGeometry y="90" width="180" height="30" as="geometry" />
        </mxCell>
        <mxCell id="2Cc2kU4OW--1ssd0tUTJ-144" value="" style="shape=partialRectangle;connectable=0;fillColor=none;top=0;left=0;bottom=0;right=0;editable=1;overflow=hidden;whiteSpace=wrap;html=1;" parent="2Cc2kU4OW--1ssd0tUTJ-143" vertex="1">
          <mxGeometry width="30" height="30" as="geometry">
            <mxRectangle width="30" height="30" as="alternateBounds" />
          </mxGeometry>
        </mxCell>
        <mxCell id="2Cc2kU4OW--1ssd0tUTJ-145" value="Type" style="shape=partialRectangle;connectable=0;fillColor=none;top=0;left=0;bottom=0;right=0;align=left;spacingLeft=6;overflow=hidden;whiteSpace=wrap;html=1;" parent="2Cc2kU4OW--1ssd0tUTJ-143" vertex="1">
          <mxGeometry x="30" width="150" height="30" as="geometry">
            <mxRectangle width="150" height="30" as="alternateBounds" />
          </mxGeometry>
        </mxCell>
        <mxCell id="2Cc2kU4OW--1ssd0tUTJ-146" value="" style="shape=tableRow;horizontal=0;startSize=0;swimlaneHead=0;swimlaneBody=0;fillColor=none;collapsible=0;dropTarget=0;points=[[0,0.5],[1,0.5]];portConstraint=eastwest;top=0;left=0;right=0;bottom=0;" parent="2Cc2kU4OW--1ssd0tUTJ-136" vertex="1">
          <mxGeometry y="120" width="180" height="30" as="geometry" />
        </mxCell>
        <mxCell id="2Cc2kU4OW--1ssd0tUTJ-147" value="" style="shape=partialRectangle;connectable=0;fillColor=none;top=0;left=0;bottom=0;right=0;editable=1;overflow=hidden;whiteSpace=wrap;html=1;" parent="2Cc2kU4OW--1ssd0tUTJ-146" vertex="1">
          <mxGeometry width="30" height="30" as="geometry">
            <mxRectangle width="30" height="30" as="alternateBounds" />
          </mxGeometry>
        </mxCell>
        <mxCell id="2Cc2kU4OW--1ssd0tUTJ-148" value="Giveaway date" style="shape=partialRectangle;connectable=0;fillColor=none;top=0;left=0;bottom=0;right=0;align=left;spacingLeft=6;overflow=hidden;whiteSpace=wrap;html=1;" parent="2Cc2kU4OW--1ssd0tUTJ-146" vertex="1">
          <mxGeometry x="30" width="150" height="30" as="geometry">
            <mxRectangle width="150" height="30" as="alternateBounds" />
          </mxGeometry>
        </mxCell>
        <mxCell id="2Cc2kU4OW--1ssd0tUTJ-151" style="shape=tableRow;horizontal=0;startSize=0;swimlaneHead=0;swimlaneBody=0;fillColor=none;collapsible=0;dropTarget=0;points=[[0,0.5],[1,0.5]];portConstraint=eastwest;top=0;left=0;right=0;bottom=0;" parent="2Cc2kU4OW--1ssd0tUTJ-136" vertex="1">
          <mxGeometry y="150" width="180" height="30" as="geometry" />
        </mxCell>
        <mxCell id="2Cc2kU4OW--1ssd0tUTJ-152" style="shape=partialRectangle;connectable=0;fillColor=none;top=0;left=0;bottom=0;right=0;editable=1;overflow=hidden;whiteSpace=wrap;html=1;" parent="2Cc2kU4OW--1ssd0tUTJ-151" vertex="1">
          <mxGeometry width="30" height="30" as="geometry">
            <mxRectangle width="30" height="30" as="alternateBounds" />
          </mxGeometry>
        </mxCell>
        <mxCell id="2Cc2kU4OW--1ssd0tUTJ-153" value="Giveaway end" style="shape=partialRectangle;connectable=0;fillColor=none;top=0;left=0;bottom=0;right=0;align=left;spacingLeft=6;overflow=hidden;whiteSpace=wrap;html=1;" parent="2Cc2kU4OW--1ssd0tUTJ-151" vertex="1">
          <mxGeometry x="30" width="150" height="30" as="geometry">
            <mxRectangle width="150" height="30" as="alternateBounds" />
          </mxGeometry>
        </mxCell>
        <mxCell id="2Cc2kU4OW--1ssd0tUTJ-154" style="shape=tableRow;horizontal=0;startSize=0;swimlaneHead=0;swimlaneBody=0;fillColor=none;collapsible=0;dropTarget=0;points=[[0,0.5],[1,0.5]];portConstraint=eastwest;top=0;left=0;right=0;bottom=0;" parent="2Cc2kU4OW--1ssd0tUTJ-136" vertex="1">
          <mxGeometry y="180" width="180" height="30" as="geometry" />
        </mxCell>
        <mxCell id="2Cc2kU4OW--1ssd0tUTJ-155" style="shape=partialRectangle;connectable=0;fillColor=none;top=0;left=0;bottom=0;right=0;editable=1;overflow=hidden;whiteSpace=wrap;html=1;" parent="2Cc2kU4OW--1ssd0tUTJ-154" vertex="1">
          <mxGeometry width="30" height="30" as="geometry">
            <mxRectangle width="30" height="30" as="alternateBounds" />
          </mxGeometry>
        </mxCell>
        <mxCell id="2Cc2kU4OW--1ssd0tUTJ-156" value="Return date" style="shape=partialRectangle;connectable=0;fillColor=none;top=0;left=0;bottom=0;right=0;align=left;spacingLeft=6;overflow=hidden;whiteSpace=wrap;html=1;" parent="2Cc2kU4OW--1ssd0tUTJ-154" vertex="1">
          <mxGeometry x="30" width="150" height="30" as="geometry">
            <mxRectangle width="150" height="30" as="alternateBounds" />
          </mxGeometry>
        </mxCell>
        <mxCell id="d-HYMm5XjEATkBvdWQP0-451" style="shape=tableRow;horizontal=0;startSize=0;swimlaneHead=0;swimlaneBody=0;fillColor=none;collapsible=0;dropTarget=0;points=[[0,0.5],[1,0.5]];portConstraint=eastwest;top=0;left=0;right=0;bottom=0;" vertex="1" parent="2Cc2kU4OW--1ssd0tUTJ-136">
          <mxGeometry y="210" width="180" height="30" as="geometry" />
        </mxCell>
        <mxCell id="d-HYMm5XjEATkBvdWQP0-452" style="shape=partialRectangle;connectable=0;fillColor=none;top=0;left=0;bottom=0;right=0;editable=1;overflow=hidden;whiteSpace=wrap;html=1;" vertex="1" parent="d-HYMm5XjEATkBvdWQP0-451">
          <mxGeometry width="30" height="30" as="geometry">
            <mxRectangle width="30" height="30" as="alternateBounds" />
          </mxGeometry>
        </mxCell>
        <mxCell id="d-HYMm5XjEATkBvdWQP0-453" value="penalty" style="shape=partialRectangle;connectable=0;fillColor=none;top=0;left=0;bottom=0;right=0;align=left;spacingLeft=6;overflow=hidden;whiteSpace=wrap;html=1;" vertex="1" parent="d-HYMm5XjEATkBvdWQP0-451">
          <mxGeometry x="30" width="150" height="30" as="geometry">
            <mxRectangle width="150" height="30" as="alternateBounds" />
          </mxGeometry>
        </mxCell>
        <mxCell id="2Cc2kU4OW--1ssd0tUTJ-150" value="" style="endArrow=none;html=1;rounded=0;" parent="1" source="2Cc2kU4OW--1ssd0tUTJ-121" target="2Cc2kU4OW--1ssd0tUTJ-136" edge="1">
          <mxGeometry relative="1" as="geometry">
            <mxPoint x="1290" y="-10" as="sourcePoint" />
            <mxPoint x="1450" y="-10" as="targetPoint" />
          </mxGeometry>
        </mxCell>
        <mxCell id="d-HYMm5XjEATkBvdWQP0-17" value="(1, n)" style="edgeLabel;html=1;align=center;verticalAlign=middle;resizable=0;points=[];" vertex="1" connectable="0" parent="2Cc2kU4OW--1ssd0tUTJ-150">
          <mxGeometry x="-0.8514" y="3" relative="1" as="geometry">
            <mxPoint x="13" y="12" as="offset" />
          </mxGeometry>
        </mxCell>
        <mxCell id="d-HYMm5XjEATkBvdWQP0-18" value="(1, 1)" style="edgeLabel;html=1;align=center;verticalAlign=middle;resizable=0;points=[];" vertex="1" connectable="0" parent="2Cc2kU4OW--1ssd0tUTJ-150">
          <mxGeometry x="0.8844" y="3" relative="1" as="geometry">
            <mxPoint x="-8" y="-13" as="offset" />
          </mxGeometry>
        </mxCell>
        <mxCell id="2Cc2kU4OW--1ssd0tUTJ-157" value="Partner" style="shape=table;startSize=30;container=1;collapsible=1;childLayout=tableLayout;fixedRows=1;rowLines=0;fontStyle=1;align=center;resizeLast=1;html=1;" parent="1" vertex="1">
          <mxGeometry x="1470" y="140" width="180" height="240" as="geometry" />
        </mxCell>
        <mxCell id="2Cc2kU4OW--1ssd0tUTJ-158" value="" style="shape=tableRow;horizontal=0;startSize=0;swimlaneHead=0;swimlaneBody=0;fillColor=none;collapsible=0;dropTarget=0;points=[[0,0.5],[1,0.5]];portConstraint=eastwest;top=0;left=0;right=0;bottom=1;" parent="2Cc2kU4OW--1ssd0tUTJ-157" vertex="1">
          <mxGeometry y="30" width="180" height="30" as="geometry" />
        </mxCell>
        <mxCell id="2Cc2kU4OW--1ssd0tUTJ-159" value="PK" style="shape=partialRectangle;connectable=0;fillColor=none;top=0;left=0;bottom=0;right=0;fontStyle=1;overflow=hidden;whiteSpace=wrap;html=1;" parent="2Cc2kU4OW--1ssd0tUTJ-158" vertex="1">
          <mxGeometry width="30" height="30" as="geometry">
            <mxRectangle width="30" height="30" as="alternateBounds" />
          </mxGeometry>
        </mxCell>
        <mxCell id="2Cc2kU4OW--1ssd0tUTJ-160" value="Id_partner" style="shape=partialRectangle;connectable=0;fillColor=none;top=0;left=0;bottom=0;right=0;align=left;spacingLeft=6;fontStyle=5;overflow=hidden;whiteSpace=wrap;html=1;" parent="2Cc2kU4OW--1ssd0tUTJ-158" vertex="1">
          <mxGeometry x="30" width="150" height="30" as="geometry">
            <mxRectangle width="150" height="30" as="alternateBounds" />
          </mxGeometry>
        </mxCell>
        <mxCell id="2Cc2kU4OW--1ssd0tUTJ-164" value="" style="shape=tableRow;horizontal=0;startSize=0;swimlaneHead=0;swimlaneBody=0;fillColor=none;collapsible=0;dropTarget=0;points=[[0,0.5],[1,0.5]];portConstraint=eastwest;top=0;left=0;right=0;bottom=0;" parent="2Cc2kU4OW--1ssd0tUTJ-157" vertex="1">
          <mxGeometry y="60" width="180" height="30" as="geometry" />
        </mxCell>
        <mxCell id="2Cc2kU4OW--1ssd0tUTJ-165" value="" style="shape=partialRectangle;connectable=0;fillColor=none;top=0;left=0;bottom=0;right=0;editable=1;overflow=hidden;whiteSpace=wrap;html=1;" parent="2Cc2kU4OW--1ssd0tUTJ-164" vertex="1">
          <mxGeometry width="30" height="30" as="geometry">
            <mxRectangle width="30" height="30" as="alternateBounds" />
          </mxGeometry>
        </mxCell>
        <mxCell id="2Cc2kU4OW--1ssd0tUTJ-166" value="Name" style="shape=partialRectangle;connectable=0;fillColor=none;top=0;left=0;bottom=0;right=0;align=left;spacingLeft=6;overflow=hidden;whiteSpace=wrap;html=1;" parent="2Cc2kU4OW--1ssd0tUTJ-164" vertex="1">
          <mxGeometry x="30" width="150" height="30" as="geometry">
            <mxRectangle width="150" height="30" as="alternateBounds" />
          </mxGeometry>
        </mxCell>
        <mxCell id="2Cc2kU4OW--1ssd0tUTJ-167" value="" style="shape=tableRow;horizontal=0;startSize=0;swimlaneHead=0;swimlaneBody=0;fillColor=none;collapsible=0;dropTarget=0;points=[[0,0.5],[1,0.5]];portConstraint=eastwest;top=0;left=0;right=0;bottom=0;" parent="2Cc2kU4OW--1ssd0tUTJ-157" vertex="1">
          <mxGeometry y="90" width="180" height="30" as="geometry" />
        </mxCell>
        <mxCell id="2Cc2kU4OW--1ssd0tUTJ-168" value="" style="shape=partialRectangle;connectable=0;fillColor=none;top=0;left=0;bottom=0;right=0;editable=1;overflow=hidden;whiteSpace=wrap;html=1;" parent="2Cc2kU4OW--1ssd0tUTJ-167" vertex="1">
          <mxGeometry width="30" height="30" as="geometry">
            <mxRectangle width="30" height="30" as="alternateBounds" />
          </mxGeometry>
        </mxCell>
        <mxCell id="2Cc2kU4OW--1ssd0tUTJ-169" value="Surname" style="shape=partialRectangle;connectable=0;fillColor=none;top=0;left=0;bottom=0;right=0;align=left;spacingLeft=6;overflow=hidden;whiteSpace=wrap;html=1;" parent="2Cc2kU4OW--1ssd0tUTJ-167" vertex="1">
          <mxGeometry x="30" width="150" height="30" as="geometry">
            <mxRectangle width="150" height="30" as="alternateBounds" />
          </mxGeometry>
        </mxCell>
        <mxCell id="2Cc2kU4OW--1ssd0tUTJ-170" style="shape=tableRow;horizontal=0;startSize=0;swimlaneHead=0;swimlaneBody=0;fillColor=none;collapsible=0;dropTarget=0;points=[[0,0.5],[1,0.5]];portConstraint=eastwest;top=0;left=0;right=0;bottom=0;" parent="2Cc2kU4OW--1ssd0tUTJ-157" vertex="1">
          <mxGeometry y="120" width="180" height="30" as="geometry" />
        </mxCell>
        <mxCell id="2Cc2kU4OW--1ssd0tUTJ-171" style="shape=partialRectangle;connectable=0;fillColor=none;top=0;left=0;bottom=0;right=0;editable=1;overflow=hidden;whiteSpace=wrap;html=1;" parent="2Cc2kU4OW--1ssd0tUTJ-170" vertex="1">
          <mxGeometry width="30" height="30" as="geometry">
            <mxRectangle width="30" height="30" as="alternateBounds" />
          </mxGeometry>
        </mxCell>
        <mxCell id="2Cc2kU4OW--1ssd0tUTJ-172" value="DNI" style="shape=partialRectangle;connectable=0;fillColor=none;top=0;left=0;bottom=0;right=0;align=left;spacingLeft=6;overflow=hidden;whiteSpace=wrap;html=1;" parent="2Cc2kU4OW--1ssd0tUTJ-170" vertex="1">
          <mxGeometry x="30" width="150" height="30" as="geometry">
            <mxRectangle width="150" height="30" as="alternateBounds" />
          </mxGeometry>
        </mxCell>
        <mxCell id="2Cc2kU4OW--1ssd0tUTJ-173" style="shape=tableRow;horizontal=0;startSize=0;swimlaneHead=0;swimlaneBody=0;fillColor=none;collapsible=0;dropTarget=0;points=[[0,0.5],[1,0.5]];portConstraint=eastwest;top=0;left=0;right=0;bottom=0;" parent="2Cc2kU4OW--1ssd0tUTJ-157" vertex="1">
          <mxGeometry y="150" width="180" height="30" as="geometry" />
        </mxCell>
        <mxCell id="2Cc2kU4OW--1ssd0tUTJ-174" style="shape=partialRectangle;connectable=0;fillColor=none;top=0;left=0;bottom=0;right=0;editable=1;overflow=hidden;whiteSpace=wrap;html=1;" parent="2Cc2kU4OW--1ssd0tUTJ-173" vertex="1">
          <mxGeometry width="30" height="30" as="geometry">
            <mxRectangle width="30" height="30" as="alternateBounds" />
          </mxGeometry>
        </mxCell>
        <mxCell id="2Cc2kU4OW--1ssd0tUTJ-175" value="Phone number" style="shape=partialRectangle;connectable=0;fillColor=none;top=0;left=0;bottom=0;right=0;align=left;spacingLeft=6;overflow=hidden;whiteSpace=wrap;html=1;" parent="2Cc2kU4OW--1ssd0tUTJ-173" vertex="1">
          <mxGeometry x="30" width="150" height="30" as="geometry">
            <mxRectangle width="150" height="30" as="alternateBounds" />
          </mxGeometry>
        </mxCell>
        <mxCell id="2Cc2kU4OW--1ssd0tUTJ-176" style="shape=tableRow;horizontal=0;startSize=0;swimlaneHead=0;swimlaneBody=0;fillColor=none;collapsible=0;dropTarget=0;points=[[0,0.5],[1,0.5]];portConstraint=eastwest;top=0;left=0;right=0;bottom=0;" parent="2Cc2kU4OW--1ssd0tUTJ-157" vertex="1">
          <mxGeometry y="180" width="180" height="30" as="geometry" />
        </mxCell>
        <mxCell id="2Cc2kU4OW--1ssd0tUTJ-177" style="shape=partialRectangle;connectable=0;fillColor=none;top=0;left=0;bottom=0;right=0;editable=1;overflow=hidden;whiteSpace=wrap;html=1;" parent="2Cc2kU4OW--1ssd0tUTJ-176" vertex="1">
          <mxGeometry width="30" height="30" as="geometry">
            <mxRectangle width="30" height="30" as="alternateBounds" />
          </mxGeometry>
        </mxCell>
        <mxCell id="2Cc2kU4OW--1ssd0tUTJ-178" value="addres" style="shape=partialRectangle;connectable=0;fillColor=none;top=0;left=0;bottom=0;right=0;align=left;spacingLeft=6;overflow=hidden;whiteSpace=wrap;html=1;" parent="2Cc2kU4OW--1ssd0tUTJ-176" vertex="1">
          <mxGeometry x="30" width="150" height="30" as="geometry">
            <mxRectangle width="150" height="30" as="alternateBounds" />
          </mxGeometry>
        </mxCell>
        <mxCell id="2Cc2kU4OW--1ssd0tUTJ-314" style="shape=tableRow;horizontal=0;startSize=0;swimlaneHead=0;swimlaneBody=0;fillColor=none;collapsible=0;dropTarget=0;points=[[0,0.5],[1,0.5]];portConstraint=eastwest;top=0;left=0;right=0;bottom=0;" parent="2Cc2kU4OW--1ssd0tUTJ-157" vertex="1">
          <mxGeometry y="210" width="180" height="30" as="geometry" />
        </mxCell>
        <mxCell id="2Cc2kU4OW--1ssd0tUTJ-315" value="FK" style="shape=partialRectangle;connectable=0;fillColor=none;top=0;left=0;bottom=0;right=0;editable=1;overflow=hidden;whiteSpace=wrap;html=1;" parent="2Cc2kU4OW--1ssd0tUTJ-314" vertex="1">
          <mxGeometry width="30" height="30" as="geometry">
            <mxRectangle width="30" height="30" as="alternateBounds" />
          </mxGeometry>
        </mxCell>
        <mxCell id="2Cc2kU4OW--1ssd0tUTJ-316" value="id_giveaway" style="shape=partialRectangle;connectable=0;fillColor=none;top=0;left=0;bottom=0;right=0;align=left;spacingLeft=6;overflow=hidden;whiteSpace=wrap;html=1;" parent="2Cc2kU4OW--1ssd0tUTJ-314" vertex="1">
          <mxGeometry x="30" width="150" height="30" as="geometry">
            <mxRectangle width="150" height="30" as="alternateBounds" />
          </mxGeometry>
        </mxCell>
        <mxCell id="2Cc2kU4OW--1ssd0tUTJ-179" value="" style="endArrow=none;html=1;rounded=0;" parent="1" source="2Cc2kU4OW--1ssd0tUTJ-136" target="2Cc2kU4OW--1ssd0tUTJ-157" edge="1">
          <mxGeometry relative="1" as="geometry">
            <mxPoint x="1650" y="-10" as="sourcePoint" />
            <mxPoint x="1660" y="-25" as="targetPoint" />
          </mxGeometry>
        </mxCell>
        <mxCell id="d-HYMm5XjEATkBvdWQP0-25" value="(0, 1)" style="edgeLabel;html=1;align=center;verticalAlign=middle;resizable=0;points=[];" vertex="1" connectable="0" parent="2Cc2kU4OW--1ssd0tUTJ-179">
          <mxGeometry x="-0.4226" y="-6" relative="1" as="geometry">
            <mxPoint x="11" y="-27" as="offset" />
          </mxGeometry>
        </mxCell>
        <mxCell id="d-HYMm5XjEATkBvdWQP0-26" value="(1, 1)" style="edgeLabel;html=1;align=center;verticalAlign=middle;resizable=0;points=[];" vertex="1" connectable="0" parent="2Cc2kU4OW--1ssd0tUTJ-179">
          <mxGeometry x="0.5671" relative="1" as="geometry">
            <mxPoint x="-6" y="18" as="offset" />
          </mxGeometry>
        </mxCell>
        <mxCell id="2Cc2kU4OW--1ssd0tUTJ-180" value="Employee" style="shape=table;startSize=30;container=1;collapsible=1;childLayout=tableLayout;fixedRows=1;rowLines=0;fontStyle=1;align=center;resizeLast=1;html=1;" parent="1" vertex="1">
          <mxGeometry x="920" y="-200" width="180" height="270" as="geometry" />
        </mxCell>
        <mxCell id="2Cc2kU4OW--1ssd0tUTJ-181" value="" style="shape=tableRow;horizontal=0;startSize=0;swimlaneHead=0;swimlaneBody=0;fillColor=none;collapsible=0;dropTarget=0;points=[[0,0.5],[1,0.5]];portConstraint=eastwest;top=0;left=0;right=0;bottom=1;" parent="2Cc2kU4OW--1ssd0tUTJ-180" vertex="1">
          <mxGeometry y="30" width="180" height="30" as="geometry" />
        </mxCell>
        <mxCell id="2Cc2kU4OW--1ssd0tUTJ-182" value="PK" style="shape=partialRectangle;connectable=0;fillColor=none;top=0;left=0;bottom=0;right=0;fontStyle=1;overflow=hidden;whiteSpace=wrap;html=1;" parent="2Cc2kU4OW--1ssd0tUTJ-181" vertex="1">
          <mxGeometry width="30" height="30" as="geometry">
            <mxRectangle width="30" height="30" as="alternateBounds" />
          </mxGeometry>
        </mxCell>
        <mxCell id="2Cc2kU4OW--1ssd0tUTJ-183" value="Id_employee" style="shape=partialRectangle;connectable=0;fillColor=none;top=0;left=0;bottom=0;right=0;align=left;spacingLeft=6;fontStyle=5;overflow=hidden;whiteSpace=wrap;html=1;" parent="2Cc2kU4OW--1ssd0tUTJ-181" vertex="1">
          <mxGeometry x="30" width="150" height="30" as="geometry">
            <mxRectangle width="150" height="30" as="alternateBounds" />
          </mxGeometry>
        </mxCell>
        <mxCell id="2Cc2kU4OW--1ssd0tUTJ-187" value="" style="shape=tableRow;horizontal=0;startSize=0;swimlaneHead=0;swimlaneBody=0;fillColor=none;collapsible=0;dropTarget=0;points=[[0,0.5],[1,0.5]];portConstraint=eastwest;top=0;left=0;right=0;bottom=0;" parent="2Cc2kU4OW--1ssd0tUTJ-180" vertex="1">
          <mxGeometry y="60" width="180" height="30" as="geometry" />
        </mxCell>
        <mxCell id="2Cc2kU4OW--1ssd0tUTJ-188" value="" style="shape=partialRectangle;connectable=0;fillColor=none;top=0;left=0;bottom=0;right=0;editable=1;overflow=hidden;whiteSpace=wrap;html=1;" parent="2Cc2kU4OW--1ssd0tUTJ-187" vertex="1">
          <mxGeometry width="30" height="30" as="geometry">
            <mxRectangle width="30" height="30" as="alternateBounds" />
          </mxGeometry>
        </mxCell>
        <mxCell id="2Cc2kU4OW--1ssd0tUTJ-189" value="Name" style="shape=partialRectangle;connectable=0;fillColor=none;top=0;left=0;bottom=0;right=0;align=left;spacingLeft=6;overflow=hidden;whiteSpace=wrap;html=1;" parent="2Cc2kU4OW--1ssd0tUTJ-187" vertex="1">
          <mxGeometry x="30" width="150" height="30" as="geometry">
            <mxRectangle width="150" height="30" as="alternateBounds" />
          </mxGeometry>
        </mxCell>
        <mxCell id="2Cc2kU4OW--1ssd0tUTJ-190" value="" style="shape=tableRow;horizontal=0;startSize=0;swimlaneHead=0;swimlaneBody=0;fillColor=none;collapsible=0;dropTarget=0;points=[[0,0.5],[1,0.5]];portConstraint=eastwest;top=0;left=0;right=0;bottom=0;" parent="2Cc2kU4OW--1ssd0tUTJ-180" vertex="1">
          <mxGeometry y="90" width="180" height="30" as="geometry" />
        </mxCell>
        <mxCell id="2Cc2kU4OW--1ssd0tUTJ-191" value="" style="shape=partialRectangle;connectable=0;fillColor=none;top=0;left=0;bottom=0;right=0;editable=1;overflow=hidden;whiteSpace=wrap;html=1;" parent="2Cc2kU4OW--1ssd0tUTJ-190" vertex="1">
          <mxGeometry width="30" height="30" as="geometry">
            <mxRectangle width="30" height="30" as="alternateBounds" />
          </mxGeometry>
        </mxCell>
        <mxCell id="2Cc2kU4OW--1ssd0tUTJ-192" value="Surname" style="shape=partialRectangle;connectable=0;fillColor=none;top=0;left=0;bottom=0;right=0;align=left;spacingLeft=6;overflow=hidden;whiteSpace=wrap;html=1;" parent="2Cc2kU4OW--1ssd0tUTJ-190" vertex="1">
          <mxGeometry x="30" width="150" height="30" as="geometry">
            <mxRectangle width="150" height="30" as="alternateBounds" />
          </mxGeometry>
        </mxCell>
        <mxCell id="2Cc2kU4OW--1ssd0tUTJ-193" style="shape=tableRow;horizontal=0;startSize=0;swimlaneHead=0;swimlaneBody=0;fillColor=none;collapsible=0;dropTarget=0;points=[[0,0.5],[1,0.5]];portConstraint=eastwest;top=0;left=0;right=0;bottom=0;" parent="2Cc2kU4OW--1ssd0tUTJ-180" vertex="1">
          <mxGeometry y="120" width="180" height="30" as="geometry" />
        </mxCell>
        <mxCell id="2Cc2kU4OW--1ssd0tUTJ-194" style="shape=partialRectangle;connectable=0;fillColor=none;top=0;left=0;bottom=0;right=0;editable=1;overflow=hidden;whiteSpace=wrap;html=1;" parent="2Cc2kU4OW--1ssd0tUTJ-193" vertex="1">
          <mxGeometry width="30" height="30" as="geometry">
            <mxRectangle width="30" height="30" as="alternateBounds" />
          </mxGeometry>
        </mxCell>
        <mxCell id="2Cc2kU4OW--1ssd0tUTJ-195" value="unsubscribe date" style="shape=partialRectangle;connectable=0;fillColor=none;top=0;left=0;bottom=0;right=0;align=left;spacingLeft=6;overflow=hidden;whiteSpace=wrap;html=1;" parent="2Cc2kU4OW--1ssd0tUTJ-193" vertex="1">
          <mxGeometry x="30" width="150" height="30" as="geometry">
            <mxRectangle width="150" height="30" as="alternateBounds" />
          </mxGeometry>
        </mxCell>
        <mxCell id="2Cc2kU4OW--1ssd0tUTJ-196" style="shape=tableRow;horizontal=0;startSize=0;swimlaneHead=0;swimlaneBody=0;fillColor=none;collapsible=0;dropTarget=0;points=[[0,0.5],[1,0.5]];portConstraint=eastwest;top=0;left=0;right=0;bottom=0;" parent="2Cc2kU4OW--1ssd0tUTJ-180" vertex="1">
          <mxGeometry y="150" width="180" height="30" as="geometry" />
        </mxCell>
        <mxCell id="2Cc2kU4OW--1ssd0tUTJ-197" style="shape=partialRectangle;connectable=0;fillColor=none;top=0;left=0;bottom=0;right=0;editable=1;overflow=hidden;whiteSpace=wrap;html=1;" parent="2Cc2kU4OW--1ssd0tUTJ-196" vertex="1">
          <mxGeometry width="30" height="30" as="geometry">
            <mxRectangle width="30" height="30" as="alternateBounds" />
          </mxGeometry>
        </mxCell>
        <mxCell id="2Cc2kU4OW--1ssd0tUTJ-198" value="subscribe date" style="shape=partialRectangle;connectable=0;fillColor=none;top=0;left=0;bottom=0;right=0;align=left;spacingLeft=6;overflow=hidden;whiteSpace=wrap;html=1;" parent="2Cc2kU4OW--1ssd0tUTJ-196" vertex="1">
          <mxGeometry x="30" width="150" height="30" as="geometry">
            <mxRectangle width="150" height="30" as="alternateBounds" />
          </mxGeometry>
        </mxCell>
        <mxCell id="2Cc2kU4OW--1ssd0tUTJ-311" style="shape=tableRow;horizontal=0;startSize=0;swimlaneHead=0;swimlaneBody=0;fillColor=none;collapsible=0;dropTarget=0;points=[[0,0.5],[1,0.5]];portConstraint=eastwest;top=0;left=0;right=0;bottom=0;" parent="2Cc2kU4OW--1ssd0tUTJ-180" vertex="1">
          <mxGeometry y="180" width="180" height="30" as="geometry" />
        </mxCell>
        <mxCell id="2Cc2kU4OW--1ssd0tUTJ-312" value="FK" style="shape=partialRectangle;connectable=0;fillColor=none;top=0;left=0;bottom=0;right=0;editable=1;overflow=hidden;whiteSpace=wrap;html=1;" parent="2Cc2kU4OW--1ssd0tUTJ-311" vertex="1">
          <mxGeometry width="30" height="30" as="geometry">
            <mxRectangle width="30" height="30" as="alternateBounds" />
          </mxGeometry>
        </mxCell>
        <mxCell id="2Cc2kU4OW--1ssd0tUTJ-313" value="id_giveaway" style="shape=partialRectangle;connectable=0;fillColor=none;top=0;left=0;bottom=0;right=0;align=left;spacingLeft=6;overflow=hidden;whiteSpace=wrap;html=1;" parent="2Cc2kU4OW--1ssd0tUTJ-311" vertex="1">
          <mxGeometry x="30" width="150" height="30" as="geometry">
            <mxRectangle width="150" height="30" as="alternateBounds" />
          </mxGeometry>
        </mxCell>
        <mxCell id="2Cc2kU4OW--1ssd0tUTJ-317" style="shape=tableRow;horizontal=0;startSize=0;swimlaneHead=0;swimlaneBody=0;fillColor=none;collapsible=0;dropTarget=0;points=[[0,0.5],[1,0.5]];portConstraint=eastwest;top=0;left=0;right=0;bottom=0;" parent="2Cc2kU4OW--1ssd0tUTJ-180" vertex="1">
          <mxGeometry y="210" width="180" height="30" as="geometry" />
        </mxCell>
        <mxCell id="2Cc2kU4OW--1ssd0tUTJ-318" style="shape=partialRectangle;connectable=0;fillColor=none;top=0;left=0;bottom=0;right=0;editable=1;overflow=hidden;whiteSpace=wrap;html=1;" parent="2Cc2kU4OW--1ssd0tUTJ-317" vertex="1">
          <mxGeometry width="30" height="30" as="geometry">
            <mxRectangle width="30" height="30" as="alternateBounds" />
          </mxGeometry>
        </mxCell>
        <mxCell id="2Cc2kU4OW--1ssd0tUTJ-319" value="pasword" style="shape=partialRectangle;connectable=0;fillColor=none;top=0;left=0;bottom=0;right=0;align=left;spacingLeft=6;overflow=hidden;whiteSpace=wrap;html=1;" parent="2Cc2kU4OW--1ssd0tUTJ-317" vertex="1">
          <mxGeometry x="30" width="150" height="30" as="geometry">
            <mxRectangle width="150" height="30" as="alternateBounds" />
          </mxGeometry>
        </mxCell>
        <mxCell id="LVv3WhsuuYitz28cWlQT-1" style="shape=tableRow;horizontal=0;startSize=0;swimlaneHead=0;swimlaneBody=0;fillColor=none;collapsible=0;dropTarget=0;points=[[0,0.5],[1,0.5]];portConstraint=eastwest;top=0;left=0;right=0;bottom=0;" parent="2Cc2kU4OW--1ssd0tUTJ-180" vertex="1">
          <mxGeometry y="240" width="180" height="30" as="geometry" />
        </mxCell>
        <mxCell id="LVv3WhsuuYitz28cWlQT-2" value="FK" style="shape=partialRectangle;connectable=0;fillColor=none;top=0;left=0;bottom=0;right=0;editable=1;overflow=hidden;whiteSpace=wrap;html=1;" parent="LVv3WhsuuYitz28cWlQT-1" vertex="1">
          <mxGeometry width="30" height="30" as="geometry">
            <mxRectangle width="30" height="30" as="alternateBounds" />
          </mxGeometry>
        </mxCell>
        <mxCell id="LVv3WhsuuYitz28cWlQT-3" value="id_rol" style="shape=partialRectangle;connectable=0;fillColor=none;top=0;left=0;bottom=0;right=0;align=left;spacingLeft=6;overflow=hidden;whiteSpace=wrap;html=1;" parent="LVv3WhsuuYitz28cWlQT-1" vertex="1">
          <mxGeometry x="30" width="150" height="30" as="geometry">
            <mxRectangle width="150" height="30" as="alternateBounds" />
          </mxGeometry>
        </mxCell>
        <mxCell id="2Cc2kU4OW--1ssd0tUTJ-200" value="Signed" style="shape=table;startSize=30;container=1;collapsible=1;childLayout=tableLayout;fixedRows=1;rowLines=0;fontStyle=1;align=center;resizeLast=1;html=1;" parent="1" vertex="1">
          <mxGeometry x="270" width="180" height="180" as="geometry" />
        </mxCell>
        <mxCell id="2Cc2kU4OW--1ssd0tUTJ-201" value="" style="shape=tableRow;horizontal=0;startSize=0;swimlaneHead=0;swimlaneBody=0;fillColor=none;collapsible=0;dropTarget=0;points=[[0,0.5],[1,0.5]];portConstraint=eastwest;top=0;left=0;right=0;bottom=1;" parent="2Cc2kU4OW--1ssd0tUTJ-200" vertex="1">
          <mxGeometry y="30" width="180" height="30" as="geometry" />
        </mxCell>
        <mxCell id="2Cc2kU4OW--1ssd0tUTJ-202" value="PK" style="shape=partialRectangle;connectable=0;fillColor=none;top=0;left=0;bottom=0;right=0;fontStyle=1;overflow=hidden;whiteSpace=wrap;html=1;" parent="2Cc2kU4OW--1ssd0tUTJ-201" vertex="1">
          <mxGeometry width="30" height="30" as="geometry">
            <mxRectangle width="30" height="30" as="alternateBounds" />
          </mxGeometry>
        </mxCell>
        <mxCell id="2Cc2kU4OW--1ssd0tUTJ-203" value="Id_signed" style="shape=partialRectangle;connectable=0;fillColor=none;top=0;left=0;bottom=0;right=0;align=left;spacingLeft=6;fontStyle=5;overflow=hidden;whiteSpace=wrap;html=1;" parent="2Cc2kU4OW--1ssd0tUTJ-201" vertex="1">
          <mxGeometry x="30" width="150" height="30" as="geometry">
            <mxRectangle width="150" height="30" as="alternateBounds" />
          </mxGeometry>
        </mxCell>
        <mxCell id="2Cc2kU4OW--1ssd0tUTJ-204" value="" style="shape=tableRow;horizontal=0;startSize=0;swimlaneHead=0;swimlaneBody=0;fillColor=none;collapsible=0;dropTarget=0;points=[[0,0.5],[1,0.5]];portConstraint=eastwest;top=0;left=0;right=0;bottom=0;" parent="2Cc2kU4OW--1ssd0tUTJ-200" vertex="1">
          <mxGeometry y="60" width="180" height="30" as="geometry" />
        </mxCell>
        <mxCell id="2Cc2kU4OW--1ssd0tUTJ-205" value="" style="shape=partialRectangle;connectable=0;fillColor=none;top=0;left=0;bottom=0;right=0;editable=1;overflow=hidden;whiteSpace=wrap;html=1;" parent="2Cc2kU4OW--1ssd0tUTJ-204" vertex="1">
          <mxGeometry width="30" height="30" as="geometry">
            <mxRectangle width="30" height="30" as="alternateBounds" />
          </mxGeometry>
        </mxCell>
        <mxCell id="2Cc2kU4OW--1ssd0tUTJ-206" value="date_sign" style="shape=partialRectangle;connectable=0;fillColor=none;top=0;left=0;bottom=0;right=0;align=left;spacingLeft=6;overflow=hidden;whiteSpace=wrap;html=1;" parent="2Cc2kU4OW--1ssd0tUTJ-204" vertex="1">
          <mxGeometry x="30" width="150" height="30" as="geometry">
            <mxRectangle width="150" height="30" as="alternateBounds" />
          </mxGeometry>
        </mxCell>
        <mxCell id="2Cc2kU4OW--1ssd0tUTJ-207" value="" style="shape=tableRow;horizontal=0;startSize=0;swimlaneHead=0;swimlaneBody=0;fillColor=none;collapsible=0;dropTarget=0;points=[[0,0.5],[1,0.5]];portConstraint=eastwest;top=0;left=0;right=0;bottom=0;" parent="2Cc2kU4OW--1ssd0tUTJ-200" vertex="1">
          <mxGeometry y="90" width="180" height="30" as="geometry" />
        </mxCell>
        <mxCell id="2Cc2kU4OW--1ssd0tUTJ-208" value="" style="shape=partialRectangle;connectable=0;fillColor=none;top=0;left=0;bottom=0;right=0;editable=1;overflow=hidden;whiteSpace=wrap;html=1;" parent="2Cc2kU4OW--1ssd0tUTJ-207" vertex="1">
          <mxGeometry width="30" height="30" as="geometry">
            <mxRectangle width="30" height="30" as="alternateBounds" />
          </mxGeometry>
        </mxCell>
        <mxCell id="2Cc2kU4OW--1ssd0tUTJ-209" value="hour_entry" style="shape=partialRectangle;connectable=0;fillColor=none;top=0;left=0;bottom=0;right=0;align=left;spacingLeft=6;overflow=hidden;whiteSpace=wrap;html=1;" parent="2Cc2kU4OW--1ssd0tUTJ-207" vertex="1">
          <mxGeometry x="30" width="150" height="30" as="geometry">
            <mxRectangle width="150" height="30" as="alternateBounds" />
          </mxGeometry>
        </mxCell>
        <mxCell id="2Cc2kU4OW--1ssd0tUTJ-210" value="" style="shape=tableRow;horizontal=0;startSize=0;swimlaneHead=0;swimlaneBody=0;fillColor=none;collapsible=0;dropTarget=0;points=[[0,0.5],[1,0.5]];portConstraint=eastwest;top=0;left=0;right=0;bottom=0;" parent="2Cc2kU4OW--1ssd0tUTJ-200" vertex="1">
          <mxGeometry y="120" width="180" height="30" as="geometry" />
        </mxCell>
        <mxCell id="2Cc2kU4OW--1ssd0tUTJ-211" value="" style="shape=partialRectangle;connectable=0;fillColor=none;top=0;left=0;bottom=0;right=0;editable=1;overflow=hidden;whiteSpace=wrap;html=1;" parent="2Cc2kU4OW--1ssd0tUTJ-210" vertex="1">
          <mxGeometry width="30" height="30" as="geometry">
            <mxRectangle width="30" height="30" as="alternateBounds" />
          </mxGeometry>
        </mxCell>
        <mxCell id="2Cc2kU4OW--1ssd0tUTJ-212" value="hour_exit" style="shape=partialRectangle;connectable=0;fillColor=none;top=0;left=0;bottom=0;right=0;align=left;spacingLeft=6;overflow=hidden;whiteSpace=wrap;html=1;" parent="2Cc2kU4OW--1ssd0tUTJ-210" vertex="1">
          <mxGeometry x="30" width="150" height="30" as="geometry">
            <mxRectangle width="150" height="30" as="alternateBounds" />
          </mxGeometry>
        </mxCell>
        <mxCell id="2Cc2kU4OW--1ssd0tUTJ-213" style="shape=tableRow;horizontal=0;startSize=0;swimlaneHead=0;swimlaneBody=0;fillColor=none;collapsible=0;dropTarget=0;points=[[0,0.5],[1,0.5]];portConstraint=eastwest;top=0;left=0;right=0;bottom=0;" parent="2Cc2kU4OW--1ssd0tUTJ-200" vertex="1">
          <mxGeometry y="150" width="180" height="30" as="geometry" />
        </mxCell>
        <mxCell id="2Cc2kU4OW--1ssd0tUTJ-214" style="shape=partialRectangle;connectable=0;fillColor=none;top=0;left=0;bottom=0;right=0;editable=1;overflow=hidden;whiteSpace=wrap;html=1;" parent="2Cc2kU4OW--1ssd0tUTJ-213" vertex="1">
          <mxGeometry width="30" height="30" as="geometry">
            <mxRectangle width="30" height="30" as="alternateBounds" />
          </mxGeometry>
        </mxCell>
        <mxCell id="2Cc2kU4OW--1ssd0tUTJ-215" value="total_time_day" style="shape=partialRectangle;connectable=0;fillColor=none;top=0;left=0;bottom=0;right=0;align=left;spacingLeft=6;overflow=hidden;whiteSpace=wrap;html=1;" parent="2Cc2kU4OW--1ssd0tUTJ-213" vertex="1">
          <mxGeometry x="30" width="150" height="30" as="geometry">
            <mxRectangle width="150" height="30" as="alternateBounds" />
          </mxGeometry>
        </mxCell>
        <mxCell id="2Cc2kU4OW--1ssd0tUTJ-216" value="Sign" style="shape=table;startSize=30;container=1;collapsible=1;childLayout=tableLayout;fixedRows=1;rowLines=0;fontStyle=1;align=center;resizeLast=1;html=1;" parent="1" vertex="1">
          <mxGeometry x="560" y="-140" width="200" height="90" as="geometry" />
        </mxCell>
        <mxCell id="2Cc2kU4OW--1ssd0tUTJ-217" value="" style="shape=tableRow;horizontal=0;startSize=0;swimlaneHead=0;swimlaneBody=0;fillColor=none;collapsible=0;dropTarget=0;points=[[0,0.5],[1,0.5]];portConstraint=eastwest;top=0;left=0;right=0;bottom=1;" parent="2Cc2kU4OW--1ssd0tUTJ-216" vertex="1">
          <mxGeometry y="30" width="200" height="30" as="geometry" />
        </mxCell>
        <mxCell id="2Cc2kU4OW--1ssd0tUTJ-218" value="PK, FK" style="shape=partialRectangle;connectable=0;fillColor=none;top=0;left=0;bottom=0;right=0;fontStyle=1;overflow=hidden;whiteSpace=wrap;html=1;" parent="2Cc2kU4OW--1ssd0tUTJ-217" vertex="1">
          <mxGeometry width="49.99999999999977" height="30" as="geometry">
            <mxRectangle width="49.99999999999977" height="30" as="alternateBounds" />
          </mxGeometry>
        </mxCell>
        <mxCell id="2Cc2kU4OW--1ssd0tUTJ-219" value="Id_signed" style="shape=partialRectangle;connectable=0;fillColor=none;top=0;left=0;bottom=0;right=0;align=left;spacingLeft=6;fontStyle=5;overflow=hidden;whiteSpace=wrap;html=1;" parent="2Cc2kU4OW--1ssd0tUTJ-217" vertex="1">
          <mxGeometry x="49.99999999999977" width="150.00000000000023" height="30" as="geometry">
            <mxRectangle width="150.00000000000023" height="30" as="alternateBounds" />
          </mxGeometry>
        </mxCell>
        <mxCell id="2Cc2kU4OW--1ssd0tUTJ-220" value="" style="shape=tableRow;horizontal=0;startSize=0;swimlaneHead=0;swimlaneBody=0;fillColor=none;collapsible=0;dropTarget=0;points=[[0,0.5],[1,0.5]];portConstraint=eastwest;top=0;left=0;right=0;bottom=0;" parent="2Cc2kU4OW--1ssd0tUTJ-216" vertex="1">
          <mxGeometry y="60" width="200" height="30" as="geometry" />
        </mxCell>
        <mxCell id="2Cc2kU4OW--1ssd0tUTJ-221" value="PK, FK" style="shape=partialRectangle;connectable=0;fillColor=none;top=0;left=0;bottom=0;right=0;editable=1;overflow=hidden;whiteSpace=wrap;html=1;fontStyle=1" parent="2Cc2kU4OW--1ssd0tUTJ-220" vertex="1">
          <mxGeometry width="49.99999999999977" height="30" as="geometry">
            <mxRectangle width="49.99999999999977" height="30" as="alternateBounds" />
          </mxGeometry>
        </mxCell>
        <mxCell id="2Cc2kU4OW--1ssd0tUTJ-222" value="&lt;b&gt;&lt;u&gt;Id_employee&lt;/u&gt;&lt;/b&gt;" style="shape=partialRectangle;connectable=0;fillColor=none;top=0;left=0;bottom=0;right=0;align=left;spacingLeft=6;overflow=hidden;whiteSpace=wrap;html=1;" parent="2Cc2kU4OW--1ssd0tUTJ-220" vertex="1">
          <mxGeometry x="49.99999999999977" width="150.00000000000023" height="30" as="geometry">
            <mxRectangle width="150.00000000000023" height="30" as="alternateBounds" />
          </mxGeometry>
        </mxCell>
        <mxCell id="2Cc2kU4OW--1ssd0tUTJ-236" value="" style="endArrow=none;html=1;rounded=0;" parent="1" source="2Cc2kU4OW--1ssd0tUTJ-216" target="2Cc2kU4OW--1ssd0tUTJ-200" edge="1">
          <mxGeometry relative="1" as="geometry">
            <mxPoint x="1400" y="-590" as="sourcePoint" />
            <mxPoint x="1560" y="-590" as="targetPoint" />
          </mxGeometry>
        </mxCell>
        <mxCell id="d-HYMm5XjEATkBvdWQP0-457" value="(1, n)" style="edgeLabel;html=1;align=center;verticalAlign=middle;resizable=0;points=[];" vertex="1" connectable="0" parent="2Cc2kU4OW--1ssd0tUTJ-236">
          <mxGeometry x="-0.5554" y="-4" relative="1" as="geometry">
            <mxPoint x="36" as="offset" />
          </mxGeometry>
        </mxCell>
        <mxCell id="d-HYMm5XjEATkBvdWQP0-458" value="(1, 1)" style="edgeLabel;html=1;align=center;verticalAlign=middle;resizable=0;points=[];" vertex="1" connectable="0" parent="2Cc2kU4OW--1ssd0tUTJ-236">
          <mxGeometry x="0.5914" y="-1" relative="1" as="geometry">
            <mxPoint y="24" as="offset" />
          </mxGeometry>
        </mxCell>
        <mxCell id="2Cc2kU4OW--1ssd0tUTJ-237" value="" style="endArrow=none;html=1;rounded=0;" parent="1" source="2Cc2kU4OW--1ssd0tUTJ-180" target="2Cc2kU4OW--1ssd0tUTJ-216" edge="1">
          <mxGeometry relative="1" as="geometry">
            <mxPoint x="1400" y="-590" as="sourcePoint" />
            <mxPoint x="1560" y="-590" as="targetPoint" />
          </mxGeometry>
        </mxCell>
        <mxCell id="d-HYMm5XjEATkBvdWQP0-455" value="(1, 1)" style="edgeLabel;html=1;align=center;verticalAlign=middle;resizable=0;points=[];" vertex="1" connectable="0" parent="2Cc2kU4OW--1ssd0tUTJ-237">
          <mxGeometry x="-0.7958" y="1" relative="1" as="geometry">
            <mxPoint x="-4" y="-17" as="offset" />
          </mxGeometry>
        </mxCell>
        <mxCell id="d-HYMm5XjEATkBvdWQP0-456" value="(1, n)" style="edgeLabel;html=1;align=center;verticalAlign=middle;resizable=0;points=[];" vertex="1" connectable="0" parent="2Cc2kU4OW--1ssd0tUTJ-237">
          <mxGeometry x="0.7277" y="2" relative="1" as="geometry">
            <mxPoint y="-17" as="offset" />
          </mxGeometry>
        </mxCell>
        <mxCell id="2Cc2kU4OW--1ssd0tUTJ-307" value="" style="endArrow=none;html=1;rounded=0;" parent="1" source="2Cc2kU4OW--1ssd0tUTJ-136" target="2Cc2kU4OW--1ssd0tUTJ-180" edge="1">
          <mxGeometry relative="1" as="geometry">
            <mxPoint x="1360" y="-130" as="sourcePoint" />
            <mxPoint x="1484.782608695652" y="-80" as="targetPoint" />
          </mxGeometry>
        </mxCell>
        <mxCell id="d-HYMm5XjEATkBvdWQP0-29" value="(0, n)" style="edgeLabel;html=1;align=center;verticalAlign=middle;resizable=0;points=[];" vertex="1" connectable="0" parent="2Cc2kU4OW--1ssd0tUTJ-307">
          <mxGeometry x="-0.7378" relative="1" as="geometry">
            <mxPoint y="-10" as="offset" />
          </mxGeometry>
        </mxCell>
        <mxCell id="d-HYMm5XjEATkBvdWQP0-454" value="(1, 1)" style="edgeLabel;html=1;align=center;verticalAlign=middle;resizable=0;points=[];" vertex="1" connectable="0" parent="2Cc2kU4OW--1ssd0tUTJ-307">
          <mxGeometry x="0.8074" y="-3" relative="1" as="geometry">
            <mxPoint x="7" y="-7" as="offset" />
          </mxGeometry>
        </mxCell>
        <mxCell id="LVv3WhsuuYitz28cWlQT-4" value="Roles" style="shape=table;startSize=30;container=1;collapsible=1;childLayout=tableLayout;fixedRows=1;rowLines=0;fontStyle=1;align=center;resizeLast=1;html=1;" parent="1" vertex="1">
          <mxGeometry x="630" width="180" height="90" as="geometry" />
        </mxCell>
        <mxCell id="LVv3WhsuuYitz28cWlQT-5" value="" style="shape=tableRow;horizontal=0;startSize=0;swimlaneHead=0;swimlaneBody=0;fillColor=none;collapsible=0;dropTarget=0;points=[[0,0.5],[1,0.5]];portConstraint=eastwest;top=0;left=0;right=0;bottom=1;" parent="LVv3WhsuuYitz28cWlQT-4" vertex="1">
          <mxGeometry y="30" width="180" height="30" as="geometry" />
        </mxCell>
        <mxCell id="LVv3WhsuuYitz28cWlQT-6" value="PK" style="shape=partialRectangle;connectable=0;fillColor=none;top=0;left=0;bottom=0;right=0;fontStyle=1;overflow=hidden;whiteSpace=wrap;html=1;" parent="LVv3WhsuuYitz28cWlQT-5" vertex="1">
          <mxGeometry width="30" height="30" as="geometry">
            <mxRectangle width="30" height="30" as="alternateBounds" />
          </mxGeometry>
        </mxCell>
        <mxCell id="LVv3WhsuuYitz28cWlQT-7" value="ID_rol" style="shape=partialRectangle;connectable=0;fillColor=none;top=0;left=0;bottom=0;right=0;align=left;spacingLeft=6;fontStyle=5;overflow=hidden;whiteSpace=wrap;html=1;" parent="LVv3WhsuuYitz28cWlQT-5" vertex="1">
          <mxGeometry x="30" width="150" height="30" as="geometry">
            <mxRectangle width="150" height="30" as="alternateBounds" />
          </mxGeometry>
        </mxCell>
        <mxCell id="LVv3WhsuuYitz28cWlQT-8" value="" style="shape=tableRow;horizontal=0;startSize=0;swimlaneHead=0;swimlaneBody=0;fillColor=none;collapsible=0;dropTarget=0;points=[[0,0.5],[1,0.5]];portConstraint=eastwest;top=0;left=0;right=0;bottom=0;" parent="LVv3WhsuuYitz28cWlQT-4" vertex="1">
          <mxGeometry y="60" width="180" height="30" as="geometry" />
        </mxCell>
        <mxCell id="LVv3WhsuuYitz28cWlQT-9" value="" style="shape=partialRectangle;connectable=0;fillColor=none;top=0;left=0;bottom=0;right=0;editable=1;overflow=hidden;whiteSpace=wrap;html=1;" parent="LVv3WhsuuYitz28cWlQT-8" vertex="1">
          <mxGeometry width="30" height="30" as="geometry">
            <mxRectangle width="30" height="30" as="alternateBounds" />
          </mxGeometry>
        </mxCell>
        <mxCell id="LVv3WhsuuYitz28cWlQT-10" value="rol" style="shape=partialRectangle;connectable=0;fillColor=none;top=0;left=0;bottom=0;right=0;align=left;spacingLeft=6;overflow=hidden;whiteSpace=wrap;html=1;" parent="LVv3WhsuuYitz28cWlQT-8" vertex="1">
          <mxGeometry x="30" width="150" height="30" as="geometry">
            <mxRectangle width="150" height="30" as="alternateBounds" />
          </mxGeometry>
        </mxCell>
        <mxCell id="LVv3WhsuuYitz28cWlQT-21" value="" style="endArrow=none;html=1;rounded=0;" parent="1" source="LVv3WhsuuYitz28cWlQT-4" target="2Cc2kU4OW--1ssd0tUTJ-180" edge="1">
          <mxGeometry relative="1" as="geometry">
            <mxPoint x="1360" y="-510" as="sourcePoint" />
            <mxPoint x="1520" y="-510" as="targetPoint" />
          </mxGeometry>
        </mxCell>
        <mxCell id="d-HYMm5XjEATkBvdWQP0-459" value="(1, 1)" style="edgeLabel;html=1;align=center;verticalAlign=middle;resizable=0;points=[];" vertex="1" connectable="0" parent="LVv3WhsuuYitz28cWlQT-21">
          <mxGeometry x="-0.6525" y="2" relative="1" as="geometry">
            <mxPoint y="-12" as="offset" />
          </mxGeometry>
        </mxCell>
        <mxCell id="d-HYMm5XjEATkBvdWQP0-460" value="(0, n)" style="edgeLabel;html=1;align=center;verticalAlign=middle;resizable=0;points=[];" vertex="1" connectable="0" parent="LVv3WhsuuYitz28cWlQT-21">
          <mxGeometry x="0.4601" y="3" relative="1" as="geometry">
            <mxPoint x="11" y="12" as="offset" />
          </mxGeometry>
        </mxCell>
        <mxCell id="d-HYMm5XjEATkBvdWQP0-28" value="(0, n)" style="edgeLabel;html=1;align=center;verticalAlign=middle;resizable=0;points=[];rotation=0;" vertex="1" connectable="0" parent="1">
          <mxGeometry x="850.0018752835447" y="199.9991670529432" as="geometry">
            <mxPoint x="8" y="-16" as="offset" />
          </mxGeometry>
        </mxCell>
      </root>
    </mxGraphModel>
  </diagram>
</mxfile>
